<?xml version="1.0" encoding="UTF-8" standalone="no"?>
<svg
   width="1024px"
   height="1024px"
   viewBox="0 0 1024 1024"
   version="1.1"
   id="svg860"
   sodipodi:docname="icon.svg"
   inkscape:version="1.2.2 (b0a8486, 2022-12-01)"
   xml:space="preserve"
   xmlns:inkscape="http://www.inkscape.org/namespaces/inkscape"
   xmlns:sodipodi="http://sodipodi.sourceforge.net/DTD/sodipodi-0.dtd"
   xmlns:xlink="http://www.w3.org/1999/xlink"
   xmlns="http://www.w3.org/2000/svg"
   xmlns:svg="http://www.w3.org/2000/svg"
   xmlns:rdf="http://www.w3.org/1999/02/22-rdf-syntax-ns#"
   xmlns:cc="http://creativecommons.org/ns#"
   xmlns:dc="http://purl.org/dc/elements/1.1/"><metadata
     id="metadata864"><rdf:RDF><cc:Work
         rdf:about=""><dc:format>image/svg+xml</dc:format><dc:type
           rdf:resource="http://purl.org/dc/dcmitype/StillImage" /></cc:Work></rdf:RDF></metadata><sodipodi:namedview
     pagecolor="#ffffff"
     bordercolor="#666666"
     borderopacity="1"
     objecttolerance="10"
     gridtolerance="10"
     guidetolerance="10"
     inkscape:pageopacity="0"
     inkscape:pageshadow="2"
     inkscape:window-width="1368"
     inkscape:window-height="847"
     id="namedview862"
     showgrid="false"
     inkscape:zoom="0.36085979"
     inkscape:cx="361.6363"
     inkscape:cy="583.32905"
     inkscape:window-x="72"
     inkscape:window-y="25"
     inkscape:window-maximized="0"
     inkscape:current-layer="svg860"
     inkscape:showpageshadow="2"
     inkscape:pagecheckerboard="0"
     inkscape:deskcolor="#d1d1d1" /><title
     id="title833">Icon-App-Name.iconset/icon_512x512@2x</title><defs
     id="defs843"><path
       d="M824,256.627066 C824,246.845101 824,237.062137 823.943901,227.279173 C823.894902,219.038203 823.799902,210.799233 823.575904,202.562263 C823.091908,184.609328 822.032915,166.502394 818.839939,148.749458 C815.601963,130.740524 810.314002,113.979585 801.981064,97.6166446 C793.789124,81.5337032 783.088204,66.8167567 770.320298,54.0578032 C757.555393,41.2988496 742.834502,30.6048886 726.745621,22.4179184 C710.365742,14.0829487 693.586866,8.79696797 675.558,5.55997976 C657.803131,2.37199136 639.691265,1.31499521 621.738398,0.829996978 C613.495459,0.60699779 605.25252,0.512998132 597.007581,0.461998318 C587.219653,0.401998536 577.431726,0.406998518 567.643798,0.406998518 L453.99664,0 L368.997269,0 L257.361095,0.406998518 C247.554168,0.406998518 237.74724,0.401998536 227.940313,0.461998318 C219.678374,0.512998132 211.420435,0.60699779 203.161496,0.829996978 C185.166629,1.31499521 167.013764,2.37299136 149.216896,5.56497974 C131.164029,8.80096796 114.360154,14.0849487 97.9582749,22.4139184 C81.8353943,30.6018886 67.0825035,41.2968496 54.2905981,54.0578032 C41.5006928,66.8157567 30.7797722,81.5297032 22.5728329,97.6096446 C14.2168948,113.980585 8.91893398,130.751524 5.67295801,148.770458 C2.47698167,166.516394 1.4179895,184.617328 0.930993109,202.562263 C0.708994752,210.800233 0.612995463,219.039203 0.562995833,227.279173 C0.502996277,237.063137 0,249.216093 0,258.999057 L0,369.088656 L0,454.998343 L0.50799624,567.426934 C0.50799624,577.222898 0.503996269,587.018863 0.562995833,596.814827 C0.612995463,605.066797 0.708994752,613.316767 0.931993101,621.565737 C1.4179895,639.541672 2.47898165,657.674606 5.67795797,675.451541 C8.92293395,693.484475 14.2198947,710.269414 22.5688329,726.653354 C30.7767722,742.759296 41.4996928,757.495242 54.2905981,770.272196 C67.0815035,783.049149 81.8303943,793.75711 97.950275,801.95608 C114.362153,810.30205 131.174029,815.595031 149.237895,818.836019 C167.026764,822.029007 185.173629,823.088003 203.161496,823.573002 C211.420435,823.796001 219.679374,823.891 227.941313,823.941 C237.74824,824 247.554168,824 257.361095,824 L370.006261,824 L455.216631,824 L567.643798,824 C577.431726,824 587.219653,824 597.007581,823.941 C605.25252,823.891 613.495459,823.796001 621.738398,823.573002 C639.698265,823.087003 657.816131,822.027007 675.578999,818.832019 C693.596866,815.591031 710.367742,810.30005 726.738621,801.95908 C742.830502,793.76111 757.554393,783.051149 770.320298,770.272196 C783.086204,757.497242 793.786124,742.763296 801.978064,726.660354 C810.316002,710.268414 815.603963,693.475475 818.843939,675.430541 C822.033915,657.660606 823.091908,639.534672 823.576904,621.565737 C823.799902,613.315767 823.894902,605.065797 823.943901,596.814827 C824,587.018863 824,577.222898 824,567.426934 C824,567.426934 824,456.983336 824,454.998343 L824,368.998657 C824,367.532662 824,256.627066 824,256.627066"
       id="path-1" /><filter
       x="-0.014563107"
       y="-0.014563107"
       width="1.0291262"
       height="1.0412621"
       filterUnits="objectBoundingBox"
       id="filter-3"><feOffset
         dx="0"
         dy="10"
         in="SourceAlpha"
         result="shadowOffsetOuter1"
         id="feOffset836" /><feGaussianBlur
         stdDeviation="5"
         in="shadowOffsetOuter1"
         result="shadowBlurOuter1"
         id="feGaussianBlur838" /><feColorMatrix
         values="0 0 0 0 0   0 0 0 0 0   0 0 0 0 0  0 0 0 0.3 0"
         type="matrix"
         in="shadowBlurOuter1"
         id="feColorMatrix840" /></filter><linearGradient
       id="WhiteTransparent"
       gradientUnits="userSpaceOnUse"><stop
         style="stop-color:white;stop-opacity:1"
         offset="0"
         id="stop7" /><stop
         style="stop-color:white;stop-opacity:0"
         offset="1"
         id="stop9" /></linearGradient><linearGradient
       id="BlackTransparent"
       gradientUnits="userSpaceOnUse"><stop
         style="stop-color:black;stop-opacity:1"
         offset="0"
         id="stop12" /><stop
         style="stop-color:black;stop-opacity:0"
         offset="1"
         id="stop14" /></linearGradient><linearGradient
       id="liquidShade"
       xlink:href="#BlackTransparent"
       x1="0"
       y1="128"
       x2="0"
       y2="64"
       gradientUnits="userSpaceOnUse" /><linearGradient
       id="liquidSpecular"
       xlink:href="#WhiteTransparent"
       x1="0"
       y1="128"
       x2="0"
       y2="76"
       gradientUnits="userSpaceOnUse" /><linearGradient
       id="sideSpecular"
       xlink:href="#WhiteTransparent"
       x1="80"
       y1="20"
       x2="60"
       y2="40"
       gradientUnits="userSpaceOnUse" /><linearGradient
       id="IcecapTip"
       xlink:href="#WhiteTransparent"
       x1="60"
       y1="20"
       x2="90"
       y2="50"
       gradientUnits="userSpaceOnUse" /><linearGradient
       id="shinySpecular"
       xlink:href="#WhiteTransparent"
       x1="33"
       y1="35"
       x2="58"
       y2="60"
       gradientUnits="userSpaceOnUse" /><clipPath
       clipPathUnits="userSpaceOnUse"
       id="clipoutline1"><path
         id="outline1"
         d="M 54.1,12.5 L 12.9,54.7 C -2.7,70.3 23,69 32.3,74.9 C 36.6,77.7 18.5,81.3 22.2,85 C 25.8,88.7 43.9,92.1 47.5,95.7 C 51.1,99.4 40.2,103.3 43.8,107 C 47.3,110.7 55.7,107.2 57.2,115.6 C 58.3,121.8 72.6,118.7 79,113.4 C 83,110 72.1,110 75.7,106.3 C 84.7,97.2 92.7,102.2 96,93.8 C 97.8,89.3 82.4,86.1 86.5,83.2 C 96.3,76.3 132.3,72.8 115.7,56.2 L 73,12.5 C 67.7,7.5 59,7.5 54.1,12.5 z M 44.2,77.2 C 45.1,77.2 75,81.2 63.5,84.3 C 59.1,85.5 38.9,77.2 44.2,77.2 z M 101.4,93.8 C 101.4,95.9 117.7,97.1 116.8,93.3 C 115.5,86.9 103.2,87.4 101.4,93.8 z M 31.9,104.9 C 35.6,108.1 41.2,104.2 43,99.7 C 39.4,95 26.1,100 31.9,104.9 z M 99.4,98.2 C 94.8,102.4 100.2,106.8 104.7,103.9 C 105.9,103.1 104.6,99.2 99.4,98.2 z " /></clipPath><filter
       id="ShadowBlur"
       filterUnits="userSpaceOnUse"
       x="0"
       y="0"><feGaussianBlur
         in="SourceAlpha"
         stdDeviation="3"
         result="blur"
         id="feGaussianBlur24" /></filter><filter
       color-interpolation-filters="sRGB"
       id="filter6017"
       x="-0.017255854"
       y="-0.0175289"
       width="1.0345117"
       height="1.0350578"><feGaussianBlur
         stdDeviation="0.80546496"
         id="feGaussianBlur6019" /></filter><filter
       color-interpolation-filters="sRGB"
       id="filter6031"
       x="-0.074775365"
       y="-0.075958573"
       width="1.1495507"
       height="1.1519171"><feGaussianBlur
         stdDeviation="3.4903482"
         id="feGaussianBlur6033" /></filter><linearGradient
       xlink:href="#linearGradient5785"
       id="linearGradient9175"
       gradientUnits="userSpaceOnUse"
       x1="82.11859"
       y1="20"
       x2="60"
       y2="40" /><linearGradient
       gradientUnits="userSpaceOnUse"
       id="linearGradient5785"><stop
         id="stop5787"
         offset="0"
         style="stop-color:#c0cdf9;stop-opacity:1" /><stop
         id="stop5789"
         offset="1"
         style="stop-color:#07092d;stop-opacity:0.28804347" /></linearGradient><clipPath
       clipPathUnits="userSpaceOnUse"
       id="clipPath9086"><use
         id="use9088"
         xlink:href="#outline1"
         class="low-specularity"
         style="fill:#ffffff;fill-opacity:1"
         x="0"
         y="0"
         width="400"
         height="300"
         transform="translate(1.009546e-6,0)" /></clipPath><filter
       color-interpolation-filters="sRGB"
       id="filter8490"
       x="-0.051767563"
       y="-0.052586698"
       width="1.1035351"
       height="1.1051734"><feGaussianBlur
         stdDeviation="2.4163949"
         id="feGaussianBlur8492" /></filter><linearGradient
       gradientUnits="userSpaceOnUse"
       y2="60"
       x2="58"
       y1="35"
       x1="33"
       xlink:href="#WhiteTransparent"
       id="shinySpecular-4"
       gradientTransform="matrix(1.009184,0,0,1.009184,-0.3890738,-0.3831933)" /><radialGradient
       xlink:href="#WhiteTransparent"
       id="radialGradient9177"
       gradientUnits="userSpaceOnUse"
       gradientTransform="matrix(1.570052,0,0,1.05093,-75.50011,-22.09591)"
       cx="116.3104"
       cy="250.8974"
       fx="116.3104"
       fy="250.8974"
       r="30.59958" /><radialGradient
       xlink:href="#WhiteTransparent"
       id="radialGradient8574"
       cx="132.4443"
       cy="251.994"
       fx="132.4443"
       fy="251.994"
       r="30.59958"
       gradientTransform="matrix(2.003253,0,0,1.340898,-132.8752,-95.16607)"
       gradientUnits="userSpaceOnUse" /><filter
       color-interpolation-filters="sRGB"
       id="filter8732"
       x="-0.078079168"
       width="1.1561583"
       y="-0.1142207"
       height="1.2284414"><feGaussianBlur
         stdDeviation="1.9579068"
         id="feGaussianBlur8734" /></filter><radialGradient
       xlink:href="#WhiteTransparent"
       id="radialGradient8744"
       cx="210.25"
       cy="168.5"
       fx="210.25"
       fy="168.5"
       r="34.25"
       gradientTransform="matrix(1,0,0,0.4233577,0,97.16423)"
       gradientUnits="userSpaceOnUse" /><radialGradient
       xlink:href="#WhiteTransparent"
       id="radialGradient8768"
       gradientUnits="userSpaceOnUse"
       gradientTransform="matrix(1,0,0,0.4233577,0,97.16423)"
       cx="217.5"
       cy="182.0819"
       fx="217.5"
       fy="182.0819"
       r="34.25" /><filter
       color-interpolation-filters="sRGB"
       id="filter8764"
       x="-0.07426214"
       width="1.1485243"
       y="-0.1754123"
       height="1.3508246"><feGaussianBlur
         stdDeviation="2.1195652"
         id="feGaussianBlur8766" /></filter><linearGradient
       xlink:href="#WhiteTransparent"
       id="linearGradient8912"
       x1="231.625"
       y1="195.1875"
       x2="231.75"
       y2="201.5"
       gradientUnits="userSpaceOnUse" /><linearGradient
       xlink:href="#WhiteTransparent"
       id="linearGradient8910"
       x1="231.3765"
       y1="195.6213"
       x2="231.3765"
       y2="200.0714"
       gradientUnits="userSpaceOnUse" /><filter
       color-interpolation-filters="sRGB"
       id="filter8906"
       x="-0.096120889"
       width="1.1922418"
       y="-0.31691147"
       height="1.6338229"><feGaussianBlur
         stdDeviation="0.56515877"
         id="feGaussianBlur8908" /></filter><radialGradient
       xlink:href="#WhiteTransparent"
       id="radialGradient8922"
       cx="228.2188"
       cy="204.8323"
       fx="228.2188"
       fy="204.8323"
       r="14.09375"
       gradientTransform="matrix(1,0,0,0.1477455,0,174.5692)"
       gradientUnits="userSpaceOnUse" /><filter
       color-interpolation-filters="sRGB"
       id="filter8980"
       x="-0.077696319"
       width="1.1553926"
       y="-0.47286011"
       height="1.9457202"><feGaussianBlur
         stdDeviation="0.82052366"
         id="feGaussianBlur8982" /></filter><radialGradient
       xlink:href="#WhiteTransparent"
       id="radialGradient8994"
       gradientUnits="userSpaceOnUse"
       gradientTransform="matrix(1,0,0,0.1477455,0,174.5692)"
       cx="228.2188"
       cy="204.8323"
       fx="228.2188"
       fy="204.8323"
       r="14.09375" /><radialGradient
       xlink:href="#linearGradient8998"
       id="radialGradient9004"
       cx="89.875"
       cy="187.8694"
       fx="89.875"
       fy="187.8694"
       r="22.75"
       gradientTransform="matrix(1,0,0,0.4070844,0,115.7601)"
       gradientUnits="userSpaceOnUse" /><linearGradient
       id="linearGradient8998"><stop
         style="stop-color:#ffffff;stop-opacity:0.33004926"
         offset="0"
         id="stop9000" /><stop
         style="stop-color:#ffffff;stop-opacity:0;"
         offset="1"
         id="stop9002" /></linearGradient><radialGradient
       xlink:href="#WhiteTransparent"
       id="radialGradient9046"
       cx="90.28125"
       cy="230.8363"
       fx="90.28125"
       fy="230.8363"
       r="10.46875"
       gradientTransform="matrix(1.185075,-0.3283582,0.1228557,0.4433973,-45.06831,152.9216)"
       gradientUnits="userSpaceOnUse" /><filter
       color-interpolation-filters="sRGB"
       id="filter9068"
       x="-0.076179281"
       width="1.1523586"
       y="-0.16557006"
       height="1.3311401"><feGaussianBlur
         stdDeviation="0.66458488"
         id="feGaussianBlur9070" /></filter><radialGradient
       xlink:href="#WhiteTransparent"
       id="radialGradient11553"
       gradientUnits="userSpaceOnUse"
       gradientTransform="matrix(1.722153,0,0,1.694977,-49.39526,-14.07806)"
       cx="68.39994"
       cy="21.22575"
       fx="68.39994"
       fy="21.22575"
       r="54.7834" /><filter
       color-interpolation-filters="sRGB"
       id="filter9298"
       x="-0.011800819"
       y="-0.011965145"
       width="1.0235132"
       height="1.0239595"><feGaussianBlur
         stdDeviation="0.32610678"
         id="feGaussianBlur9300" /></filter><linearGradient
       xlink:href="#WhiteTransparent"
       id="linearGradient5905"
       x1="95.5"
       y1="208.1644"
       x2="153.5"
       y2="223.5"
       gradientUnits="userSpaceOnUse" /><filter
       color-interpolation-filters="sRGB"
       id="filter5983-5"
       x="-0.082508992"
       width="1.165018"
       y="-0.12233573"
       height="1.2446715"><feGaussianBlur
         stdDeviation="3.6868363"
         id="feGaussianBlur5985-9" /></filter><linearGradient
       xlink:href="#linearGradient5793-6"
       id="linearGradient5801"
       x1="57.2252"
       y1="76.24634"
       x2="53.63158"
       y2="84.48032"
       gradientUnits="userSpaceOnUse"
       gradientTransform="matrix(0.8852575,0,0,0.8852575,5.177215,9.229337)" /><linearGradient
       id="linearGradient5793-6"><stop
         style="stop-color:#eeeeec;stop-opacity:1;"
         offset="0"
         id="stop5795-2" /><stop
         style="stop-color:#eeeeec;stop-opacity:0;"
         offset="1"
         id="stop5797-1" /></linearGradient><radialGradient
       xlink:href="#WhiteTransparent"
       id="radialGradient5811"
       cx="181.2273"
       cy="214.5512"
       fx="181.2273"
       fy="214.5512"
       r="22.4664"
       gradientTransform="matrix(1.351523,0,0,1.717571,-63.70565,-153.9557)"
       gradientUnits="userSpaceOnUse" /><filter
       color-interpolation-filters="sRGB"
       id="filter5845"
       x="-0.067752077"
       y="-0.053323477"
       width="1.1355042"
       height="1.106647"><feGaussianBlur
         stdDeviation="1.2409356"
         id="feGaussianBlur5847" /></filter><linearGradient
       xlink:href="#WhiteTransparent"
       id="linearGradient5822"
       gradientUnits="userSpaceOnUse"
       gradientTransform="matrix(0.4927913,0,0,0.4927913,-6.000388,-9.722518)"
       x1="73.7121"
       y1="180.4757"
       x2="82.75407"
       y2="187.6597" /><linearGradient
       id="linearGradient10981-3"><stop
         style="stop-color:#729fcf;stop-opacity:1;"
         offset="0"
         id="stop10983-2" /><stop
         style="stop-color:#729fcf;stop-opacity:0;"
         offset="1"
         id="stop10985-3" /></linearGradient><filter
       color-interpolation-filters="sRGB"
       id="filter10997-7"
       x="-0.05936747"
       y="-0.040286151"
       width="1.1187349"
       height="1.0805723"><feGaussianBlur
         stdDeviation="2.7696726"
         id="feGaussianBlur10999-0" /></filter><linearGradient
       y2="144.5"
       x2="153.7005"
       y1="217.5"
       x1="180.8129"
       gradientTransform="translate(-130.1657,-83.35279)"
       gradientUnits="userSpaceOnUse"
       id="linearGradient1030"
       xlink:href="#linearGradient10981-3" /><mask
       id="mask-2"
       fill="#ffffff"><use
         xlink:href="#path-1"
         id="use845" /></mask></defs><g
     id="Template---Icons---App"
     stroke="none"
     stroke-width="1"
     fill="none"
     fill-rule="evenodd"
     inkscape:label="Template shadow"
     style="display:inline"><use
       fill="#000000"
       fill-opacity="1"
       filter="url(#filter-3)"
       xlink:href="#path-1"
       id="use848"
       transform="translate(100,100)"
       style="display:inline"
       sodipodi:insensitive="true" /></g><style
     type="text/css"
     id="style26">
	.specularity {opacity:0.5;}
	.low-specularity {opacity:0.25;}
	.full-specularity {opacity:1;}
	.black {fill:#000000;}
	.white {fill:#ffffff;}
	.outline-big {stroke-width:16;stroke:none;opacity:0.1;fill:none;}
	.outline-small {stroke-width:8;stroke:none;opacity:0.2;fill:none;}
	.stroke-highlight {fill:none;stroke:none;opacity:0.2;}
       	.base-shadow 	{fill:black;opacity:75;}
	</style><g
     id="use3047"
     inkscape:label="Template grid"
     style="display:none"
     sodipodi:insensitive="true"><title
       id="title697">App Icon Guides</title><path
       style="fill:none;stroke:#919191;stroke-width:3px"
       d="m 0,739.001 v -454 C 0,135.001 112,0 284.999,0 H 739.001 C 912,0 1024,135.001 1024,285.001 v 454 C 1024,889.001 912,1024 739.001,1024 H 284.999 C 112,1024 0,889.001 0,739.001 Z"
       id="path703"><title
         id="title701">Outer Bounding Box</title></path><path
       style="fill:none;stroke:#919191;stroke-width:3px"
       d="m 50,739.001 v -454 C 50,162 140,50 284.999,50 H 739.001 C 884.001,50 974,162 974,285.001 v 454 C 974,862 884.001,974 739.001,974 H 284.999 C 140,974 50,862 50,739.001 Z"
       id="path707"><title
         id="title705">Inner Bounding Box</title></path><path
       style="fill:none;stroke:#ff0000;stroke-width:3px"
       d="m 100,724.005 v -424 C 100,185.006 170,100 300.026,100.005 L 724,100 c 130,0.005 200,85.006 200,200.005 v 424 c 0,115.001 -70,199.995 -200,200 H 300.026 C 170,924.005 100,839.006 100,724.005 Z"
       id="path711"><title
         id="title709">Icon Grid Bounding Box</title></path><path
       style="fill:none;stroke:#ff0000"
       d="M 154.017,870.001 H 870.001 V 154.014 H 154.017 Z m 0,0 715.984,-715.987 z M 100,511.995 h 824 z m 0,157.365 H 924 Z M 924,354.631 H 100 Z M 669.365,99.995 v 824 z m -314.73,824 v -824 z M 512,99.995 v 824 z m -357.983,54.019 715.984,715.987 z"
       id="path715"><title
         id="title713">Icon Grid</title></path><circle
       style="fill:none"
       cx="512"
       cy="511.995"
       r="157.397"
       id="circle719"><title
         id="title717">Grid Circle 1</title></circle><circle
       style="fill:none"
       cx="512"
       cy="511.995"
       r="222.577"
       id="circle723"><title
         id="title721">Grid Circle 2</title></circle><circle
       style="fill:none"
       cx="512"
       cy="511.995"
       r="358.00101"
       id="circle727"><title
         id="title725">Grid Circle 3</title></circle><path
       d="M 863.29062,93.683347 458.24271,943.04616 c -12.36192,25.92227 -43.39693,36.91493 -69.31919,24.553 -25.92226,-12.36192 -36.91493,-43.39692 -24.553,-69.31919 L 769.41843,48.917159 c 12.36192,-25.922264 43.39692,-36.914926 69.31919,-24.553002 25.92226,12.361925 36.91493,43.396926 24.553,69.31919 z M 838.75341,24.419327 388.86891,967.62076"
       style="stroke:#0077ff;stroke-width:5px;stroke-dasharray:24, 10"
       id="path731"><title
         id="title729">Tool Angle</title></path></g><use
     fill="#ffffff"
     fill-rule="evenodd"
     xlink:href="#path-1"
     id="use22067"
     transform="translate(100,100)"
     inkscape:label="board"
     style="display:inline;fill:#ffe683;fill-opacity:1"
     sodipodi:insensitive="true" /><g
     id="g45171"
     inkscape:label="grains"><path
       style="opacity:0.514368;fill:none;stroke:#c0832c;stroke-width:3;stroke-linecap:round;stroke-linejoin:miter;stroke-dasharray:none;stroke-opacity:1"
       d="m 881.43075,166.28273 c 0,0 3.8563,72.60809 5.18924,99.93759 1.33294,27.3295 3.99064,54.51292 2,81.96412 -1.99064,27.4512 -13.34036,54.35148 -14,81.96411 -0.65964,27.61263 7.33411,54.63461 10,81.96411 2.66589,27.3295 7.65196,54.3978 6,81.9641 -1.65196,27.5663 -16,68.3034 -16,81.9641 0,13.6607 -6,68.3034 -6,81.9641 0,13.6607 13.56915,99.09805 13.56915,99.09805 0,0 -13.56915,-85.43735 -13.56915,-99.09805 0,-13.6607 6,-68.3034 6,-81.9641 0,-13.6607 14.34804,-54.3978 16,-81.9641 1.65196,-27.5663 -3.33411,-54.6346 -6,-81.9641 -2.66589,-27.3295 -10.65964,-54.35148 -10,-81.96411 0.65964,-27.61263 12.00936,-54.51291 14,-81.96411 1.99064,-27.4512 -0.66706,-54.63462 -2,-81.96412 -1.33294,-27.3295 -5.18924,-99.93759 -5.18924,-99.93759 z"
       id="path31240"
       sodipodi:nodetypes="cssssssscsssssssc" /><path
       style="opacity:0.514368;fill:none;stroke:#d69d45;stroke-width:3;stroke-linecap:round;stroke-linejoin:miter;stroke-dasharray:none;stroke-opacity:1"
       d="m 142.53285,167.0455 c 0,0 4.667,59.67713 6,89.52686 1.333,29.84973 1.94641,46.54591 -0.0457,76.5071 -1.9921,29.96119 -13.3392,59.41769 -14,89.52686 -0.6608,30.10917 7.334,59.67712 10,89.52686 2.666,29.84978 7.6543,59.46018 6,89.52688 -1.6543,30.0667 -13.3438,59.5656 -16,89.5268 -2.6562,29.9612 -0.9994,59.6678 0,89.5269 0.9994,29.8591 5.36587,73.18201 5.36587,73.18201 0,0 -4.36647,-43.32291 -5.36587,-73.18201 -0.9994,-29.8591 -2.6562,-59.5657 0,-89.5269 2.6562,-29.9612 14.3457,-59.4601 16,-89.5268 1.6543,-30.0667 -3.334,-59.6771 -6,-89.52688 -2.666,-29.84974 -10.6608,-59.41769 -10,-89.52686 0.6608,-30.10917 12.0079,-59.56567 14,-89.52686 1.9921,-29.96119 -0.667,-59.67713 -2,-89.52686 -1.333,-29.84973 -3.95431,-76.5071 -3.95431,-76.5071 z"
       id="path31238"
       sodipodi:nodetypes="cssssssscssssssscc" /><path
       style="opacity:0.514368;fill:none;stroke:#f3b45a;stroke-width:5;stroke-linecap:round;stroke-linejoin:miter;stroke-dasharray:none;stroke-opacity:1"
       d="m 840.65744,130.33526 c 0,0 4.03382,71.28277 5.36685,102.3416 1.33303,31.05883 3.99273,61.98905 2,93.15502 -1.99273,31.16597 -13.33879,61.84678 -14,93.15503 -0.66121,31.30825 7.33394,62.09619 10,93.15502 2.66606,31.05883 7.65523,61.88763 6,93.15503 -1.65523,31.2674 -13.34297,61.989 -16,93.155 -2.65703,31.166 -0.99948,62.0872 0,93.155 0.99948,31.0678 6.20569,102.69081 6.20569,102.69081 0,0 -5.20621,-71.62301 -6.20569,-102.69081 -0.99948,-31.0678 -2.65703,-61.989 0,-93.155 2.65703,-31.166 14.34477,-61.8876 16,-93.155 1.65523,-31.2674 -3.33394,-62.0962 -6,-93.15503 -2.66606,-31.05883 -10.66121,-61.84677 -10,-93.15502 0.66121,-31.30825 12.00727,-61.98906 14,-93.15503 1.99273,-31.16597 -0.66697,-62.09619 -2,-93.15502 -1.33303,-31.05883 -5.36685,-102.3416 -5.36685,-102.3416 z"
       id="path31236"
       sodipodi:nodetypes="cssssssscsssssssc" /><path
       style="opacity:0.514368;fill:none;stroke:#c0832c;stroke-width:8;stroke-linecap:round;stroke-linejoin:miter;stroke-dasharray:none;stroke-opacity:1"
       d="m 183.54531,130.63093 c 0,0 5.27679,56.70568 6.60984,89.19364 1.33305,32.48796 3.99334,64.85297 2,97.44337 -1.99334,32.5904 -13.33833,64.71687 -14,97.44336 -0.66167,32.72649 7.33389,64.95539 10,97.44336 2.66611,32.488 7.6562,64.756 6,97.4434 -1.6562,32.6874 -13.34216,64.8529 -16,97.4433 -2.65784,32.5904 -0.99953,64.9469 0,97.4434 0.99953,32.4965 5.672,89.42591 5.672,89.42591 0,0 -4.67247,-56.92941 -5.672,-89.42591 -0.99953,-32.4965 -2.65784,-64.853 0,-97.4434 2.65784,-32.5904 14.3438,-64.7559 16,-97.4433 1.6562,-32.6874 -3.33389,-64.9554 -6,-97.4434 -2.66611,-32.48797 -10.66167,-64.71687 -10,-97.44336 0.66167,-32.72649 12.00666,-64.85296 14,-97.44336 1.99334,-32.5904 -0.66695,-64.95541 -2,-97.44337 -1.33305,-32.48796 -6.60984,-89.19364 -6.60984,-89.19364 z"
       id="path31234"
       sodipodi:nodetypes="cssssssscsssssssc" /><path
       style="opacity:0.514368;fill:none;stroke:#c0832c;stroke-width:2;stroke-linecap:round;stroke-linejoin:miter;stroke-dasharray:none;stroke-opacity:1"
       d="m 790.59752,108.82677 c 0,0 4.30269,70.52595 5.63576,103.81274 1.33307,33.28679 3.99366,66.45356 2,99.84034 -1.99366,33.38678 -13.33809,66.32071 -14,99.84034 -0.66191,33.51963 7.33386,66.55354 10,99.84033 2.66614,33.28674 7.65669,66.35884 6,99.84034 -1.65669,33.4815 -13.34174,66.4535 -16,99.8403 -2.65826,33.3868 -0.99955,66.5453 0,99.8404 0.99955,33.2951 5.52381,104.09789 5.52381,104.09789 0,0 -4.52426,-70.80279 -5.52381,-104.09789 -0.99955,-33.2951 -2.65826,-66.4536 0,-99.8404 2.65826,-33.3868 14.34331,-66.3588 16,-99.8403 1.65669,-33.4815 -3.33386,-66.5536 -6,-99.84034 -2.66614,-33.28679 -10.66191,-66.3207 -10,-99.84033 0.66191,-33.51963 12.00634,-66.45356 14,-99.84034 1.99366,-33.38678 -0.66693,-66.55355 -2,-99.84034 -1.33307,-33.28679 -5.63576,-103.81274 -5.63576,-103.81274 z"
       id="path31232"
       sodipodi:nodetypes="cssssssscsssssssc" /><path
       style="opacity:0.514368;fill:none;stroke:#f3b45a;stroke-width:4;stroke-linecap:round;stroke-linejoin:miter;stroke-dasharray:none;stroke-opacity:1"
       d="m 234.65834,108.70241 c 0,0 5.42154,64.59493 6.75462,98.48764 1.33308,33.89271 3.99388,67.66755 2,101.65846 -1.99388,33.99091 -13.33793,67.53703 -14,101.65845 -0.66207,34.12142 7.33384,67.76574 10,101.65845 2.66616,33.89275 7.65704,67.57445 6,101.65845 -1.65704,34.084 -13.34145,67.6676 -16,101.6585 -2.65855,33.9909 -0.99957,67.7575 0,101.6584 0.99957,33.9009 6.32055,98.82 6.32055,98.82 0,0 -5.32098,-64.9191 -6.32055,-98.82 -0.99957,-33.9009 -2.65855,-67.6675 0,-101.6584 2.65855,-33.9909 14.34296,-67.5745 16,-101.6585 1.65704,-34.084 -3.33384,-67.7657 -6,-101.65845 -2.66616,-33.89271 -10.66207,-67.53703 -10,-101.65845 0.66207,-34.12142 12.00612,-67.66754 14,-101.65845 1.99388,-33.99091 -0.66692,-67.76575 -2,-101.65846 -1.33308,-33.89271 -6.75462,-98.48764 -6.75462,-98.48764 z"
       id="path31230"
       sodipodi:nodetypes="cssssssscsssssssc" /><path
       style="opacity:0.514368;fill:none;stroke:#d69d45;stroke-width:7;stroke-linecap:round;stroke-linejoin:miter;stroke-dasharray:none;stroke-opacity:1"
       d="m 739.70203,102.56676 c 0,0 4.66692,68.26026 6,102.40015 1.33308,34.13989 3.99397,68.16275 2,102.40014 -1.99397,34.23739 -13.33786,68.03318 -14,102.40014 -0.66214,34.36696 7.33384,68.26026 10,102.40015 2.66616,34.13992 7.65718,68.07032 6,102.40012 -1.65718,34.3298 -13.34134,68.1628 -16,102.4002 -2.65866,34.2374 -0.99957,68.2521 0,102.4001 0.99957,34.148 5.99801,103.47194 5.99801,103.47194 0,0 -4.99844,-69.32394 -5.99801,-103.47194 -0.99957,-34.148 -2.65866,-68.1627 0,-102.4001 2.65866,-34.2374 14.34282,-68.0704 16,-102.4002 1.65718,-34.3298 -3.33384,-68.2602 -6,-102.40012 -2.66616,-34.13989 -10.66214,-68.03319 -10,-102.40015 0.66214,-34.36696 12.00603,-68.16275 14,-102.40014 1.99397,-34.23739 -0.66692,-68.26025 -2,-102.40014 -1.33308,-34.13989 -6,-102.40015 -6,-102.40015 z"
       id="path31228"
       sodipodi:nodetypes="cssssssscsssssssc" /><path
       style="opacity:0.514368;fill:none;stroke:#c0832c;stroke-width:2;stroke-linecap:round;stroke-linejoin:miter;stroke-dasharray:none;stroke-opacity:1"
       d="m 720.97546,101.27184 c 0,0 4.66692,68.47627 6,102.72413 1.33308,34.24786 3.994,68.37907 2,102.72412 -1.994,34.34505 -13.33783,68.24991 -14,102.72413 -0.66217,34.47422 7.33383,68.47627 10,102.72413 2.66617,34.24791 7.65724,68.28701 6,102.72411 -1.65724,34.4371 -13.34129,68.379 -16,102.7241 -2.65871,34.3451 -0.99958,68.4682 0,102.7242 0.99958,34.256 6.76294,103.23224 6.76294,103.23224 0,0 -5.76336,-68.97624 -6.76294,-103.23224 -0.99958,-34.256 -2.65871,-68.3791 0,-102.7242 2.65871,-34.3451 14.34276,-68.287 16,-102.7241 1.65724,-34.4371 -3.33383,-68.4762 -6,-102.72411 -2.66617,-34.24786 -10.66217,-68.24991 -10,-102.72413 0.66217,-34.47422 12.006,-68.37908 14,-102.72413 1.994,-34.34505 -0.66692,-68.47626 -2,-102.72412 -1.33308,-34.24786 -6,-102.72413 -6,-102.72413 z"
       id="path31226"
       sodipodi:nodetypes="cssssssscsssssssc" /><path
       style="opacity:0.514368;fill:none;stroke:#c0832c;stroke-width:1;stroke-linecap:round;stroke-linejoin:miter;stroke-dasharray:none;stroke-opacity:1"
       d="m 707.93445,100.79723 c 0,0 4.66692,68.55552 6,102.84301 1.33308,34.28749 3.99402,68.45845 2,102.84301 -1.99402,34.38456 -13.33782,68.32943 -14,102.84301 -0.66218,34.51358 7.33383,68.55554 10,102.84302 2.66617,34.28748 7.65726,68.36648 6,102.84298 -1.65726,34.4765 -13.34127,68.4584 -16,102.843 -2.65873,34.3846 -0.99958,68.5474 0,102.843 0.99958,34.2956 5.99248,103.14306 5.99248,103.14306 0,0 -4.9929,-68.84746 -5.99248,-103.14306 -0.99958,-34.2956 -2.65873,-68.4584 0,-102.843 2.65873,-34.3846 14.34274,-68.3665 16,-102.843 1.65726,-34.4765 -3.33383,-68.5555 -6,-102.84298 -2.66617,-34.28748 -10.66218,-68.32944 -10,-102.84302 0.66218,-34.51358 12.00598,-68.45845 14,-102.84301 1.99402,-34.38456 -0.66692,-68.55552 -2,-102.84301 -1.33308,-34.28749 -6,-102.84301 -6,-102.84301 z"
       id="path31224"
       sodipodi:nodetypes="cssssssscsssssssc" /><path
       style="opacity:0.514368;fill:none;stroke:#d69d45;stroke-width:3.5;stroke-linecap:round;stroke-linejoin:miter;stroke-dasharray:none;stroke-opacity:1"
       d="m 289.35828,100.79723 c 0,0 4.66692,68.55552 6,102.84301 1.33308,34.28749 3.99402,68.45845 2,102.84301 -1.99402,34.38456 -13.33782,68.32943 -14,102.84301 -0.66218,34.51358 7.33383,68.55554 10,102.84302 2.66617,34.28748 7.65726,68.36648 6,102.84298 -1.65726,34.4765 -13.34127,68.4584 -16,102.843 -2.65873,34.3846 -0.99958,68.5474 0,102.843 0.99958,34.2956 6,102.8431 6,102.8431 0,0 -5.00042,-68.5475 -6,-102.8431 -0.99958,-34.2956 -2.65873,-68.4584 0,-102.843 2.65873,-34.3846 14.34274,-68.3665 16,-102.843 1.65726,-34.4765 -3.33383,-68.5555 -6,-102.84298 -2.66617,-34.28748 -10.66218,-68.32944 -10,-102.84302 0.66218,-34.51358 12.00598,-68.45845 14,-102.84301 1.99402,-34.38456 -0.66692,-68.55552 -2,-102.84301 -1.33308,-34.28749 -6,-102.84301 -6,-102.84301 z"
       id="path31222" /><path
       style="color:#000000;opacity:0.514368;fill:#fecb7c;stroke-linecap:round;-inkscape-stroke:none"
       d="m 685.19922,100.29492 -3.99024,0.27149 c 0,0 4.66603,68.64543 5.9961,102.89062 0.66754,17.18721 1.66456,34.31574 2.24609,51.42774 0.58153,17.11199 0.74769,34.20772 -0.24414,51.32812 -0.24664,4.2573 -0.63986,8.51383 -1.14062,12.77148 -2.5038,21.28826 -7.69287,42.60553 -10.66797,64.19727 -1.19004,8.6367 -2.02584,17.31638 -2.19336,26.05664 -0.16715,8.72056 0.20856,17.39586 0.9082,26.03516 2.09893,25.91789 7.11003,51.51978 9.09766,77.10742 2.67317,34.4129 7.64111,68.44083 5.99609,102.69726 -0.40967,8.53118 -1.44779,17.0546 -2.81445,25.58399 -1.36666,8.52939 -3.06174,17.06552 -4.79102,25.62109 -3.45855,17.11115 -7.04977,34.30377 -8.39258,51.6875 -2.6715,34.58489 -1.00273,68.85503 -0.004,103.16016 1.00297,34.44733 6.0039,103.03711 6.0039,103.03711 l 3.99024,-0.29102 c 0,0 -1.25064,-17.16292 -2.625,-38.60156 -0.68718,-10.71932 -1.40489,-22.50682 -2.01367,-33.75391 -0.60878,-11.24708 -1.10838,-21.95225 -1.35743,-30.50586 -1.00032,-34.35659 -2.65185,-68.48363 -0.006,-102.73828 0.32898,-4.259 0.80003,-8.5177 1.375,-12.77734 0.57496,-4.25964 1.25556,-8.51942 2.00195,-12.7832 1.49278,-8.52757 3.25316,-17.06762 4.98437,-25.63282 3.46244,-17.13038 6.80465,-34.36319 7.64258,-51.8125 0.41739,-8.69172 0.41747,-17.34826 0.14063,-25.97851 -0.83052,-25.89074 -4.15016,-51.54817 -6.14453,-77.22266 -1.34109,-17.26435 -4.00276,-34.39819 -6.24805,-51.49414 -1.68397,-12.82196 -3.13418,-25.62169 -3.61524,-38.4375 -0.16035,-4.27194 -0.21283,-8.54734 -0.13086,-12.82422 0.16358,-8.53405 0.99422,-17.05496 2.17969,-25.58203 2.96368,-21.31767 8.14477,-42.66436 10.66406,-64.2832 0.50386,-4.32377 0.90243,-8.65822 1.1543,-13.00586 0.5011,-8.64967 0.71009,-17.27862 0.7207,-25.89258 0.0319,-25.84188 -1.72044,-51.54666 -2.71875,-77.25 -0.66804,-17.20017 -2.17014,-42.95065 -3.5039,-64.40234 -1.33376,-21.4517 -2.5,-38.60352 -2.5,-38.60352 z"
       id="path31220" /><path
       style="opacity:0.514368;fill:none;stroke:#d69d45;stroke-width:5;stroke-linecap:round;stroke-linejoin:miter;stroke-dasharray:none;stroke-opacity:1"
       d="m 314.13562,100.43004 c 0,0 4.66692,68.61673 6,102.93481 1.33308,34.31808 3.99403,68.51974 2,102.93481 -1.99403,34.41507 -13.33781,68.39084 -14,102.93481 -0.66219,34.54397 7.33383,68.61674 10,102.93481 2.66617,34.31808 7.65727,68.42778 6,102.93478 -1.65727,34.507 -13.34126,68.5197 -16,102.9348 -2.65874,34.4151 -0.99958,68.6086 0,102.9348 0.99958,34.3262 6,102.9349 6,102.9349 0,0 -5.00042,-68.6087 -6,-102.9349 -0.99958,-34.3262 -2.65874,-68.5197 0,-102.9348 2.65874,-34.4151 14.34273,-68.4278 16,-102.9348 1.65727,-34.507 -3.33383,-68.6167 -6,-102.93478 -2.66617,-34.31807 -10.66219,-68.39084 -10,-102.93481 0.66219,-34.54397 12.00597,-68.51974 14,-102.93481 1.99403,-34.41507 -0.66692,-68.61673 -2,-102.93481 -1.33308,-34.31808 -6,-102.93481 -6,-102.93481 z"
       id="path31218" /><path
       style="opacity:0.514368;fill:none;stroke:#f3b45a;stroke-width:5;stroke-linecap:round;stroke-linejoin:miter;stroke-dasharray:none;stroke-opacity:1"
       d="m 343.55749,100.37534 c 0,0 4.66692,68.62617 6,102.94897 1.33308,34.3228 3.99403,68.52919 2,102.94897 -1.99403,34.41978 -13.33781,68.40031 -14,102.94897 -0.66219,34.54866 7.33383,68.62618 10,102.94897 2.66617,34.32284 7.65728,68.43724 6,102.94894 -1.65728,34.5117 -13.34125,68.5292 -16,102.949 -2.65875,34.4198 -0.99958,68.6181 0,102.949 0.99958,34.3309 6,102.949 6,102.949 0,0 -5.00042,-68.6181 -6,-102.949 -0.99958,-34.3309 -2.65875,-68.5292 0,-102.949 2.65875,-34.4198 14.34272,-68.4373 16,-102.949 1.65728,-34.5117 -3.33383,-68.6261 -6,-102.94894 -2.66617,-34.32279 -10.66219,-68.40031 -10,-102.94897 0.66219,-34.54866 12.00597,-68.52919 14,-102.94897 1.99403,-34.41978 -0.66692,-68.62617 -2,-102.94897 -1.33308,-34.3228 -6,-102.94897 -6,-102.94897 z"
       id="path31216" /><path
       style="opacity:0.514368;fill:none;stroke:#d69d45;stroke-width:7;stroke-linecap:round;stroke-linejoin:miter;stroke-dasharray:none;stroke-opacity:1"
       d="m 597.01648,100.17026 c 0,0 4.66692,68.64327 6,102.97461 1.33308,34.33134 3.99403,68.5463 2,102.9746 -1.99403,34.4283 -13.33781,68.41746 -14,102.97461 -0.66219,34.55715 7.33383,68.64326 10,102.9746 2.66617,34.33138 7.65728,68.45448 6,102.97458 -1.65728,34.5201 -13.34125,68.5463 -16,102.9746 -2.65875,34.4283 -0.99958,68.6352 0,102.9746 0.99958,34.3394 6,102.9747 6,102.9747 0,0 -5.00042,-68.6353 -6,-102.9747 -0.99958,-34.3394 -2.65875,-68.5463 0,-102.9746 2.65875,-34.4283 14.34272,-68.4545 16,-102.9746 1.65728,-34.5201 -3.33383,-68.6432 -6,-102.97458 -2.66617,-34.33134 -10.66219,-68.41745 -10,-102.9746 0.66219,-34.55715 12.00597,-68.54631 14,-102.97461 1.99403,-34.4283 -0.66692,-68.64326 -2,-102.9746 -1.33308,-34.33134 -6,-102.97461 -6,-102.97461 z"
       id="path31214" /><path
       style="opacity:0.514368;fill:none;stroke:#c0832c;stroke-width:2;stroke-linecap:round;stroke-linejoin:miter;stroke-dasharray:none;stroke-opacity:1"
       d="m 570.87195,100.07656 c 0,0 4.66692,68.65107 6,102.98632 1.33308,34.33525 3.99403,68.55414 2,102.98633 -1.99403,34.43219 -13.33781,68.42529 -14,102.98632 -0.66219,34.56103 7.33383,68.65109 10,102.98633 2.66617,34.3352 7.65728,68.4623 6,102.9863 -1.65728,34.524 -13.34125,68.5541 -16,102.9863 -2.65875,34.4322 -0.99958,68.6431 0,102.9864 0.99958,34.3433 6,102.9863 6,102.9863 0,0 -5.00042,-68.643 -6,-102.9863 -0.99958,-34.3433 -2.65875,-68.5542 0,-102.9864 2.65875,-34.4322 14.34272,-68.4623 16,-102.9863 1.65728,-34.524 -3.33383,-68.6511 -6,-102.9863 -2.66617,-34.33524 -10.66219,-68.4253 -10,-102.98633 0.66219,-34.56103 12.00597,-68.55413 14,-102.98632 1.99403,-34.43219 -0.66692,-68.65108 -2,-102.98633 -1.33308,-34.33525 -6,-102.98632 -6,-102.98632 z"
       id="path31212" /><path
       style="opacity:0.514368;fill:none;stroke:#d69d45;stroke-width:4;stroke-linecap:round;stroke-linejoin:miter;stroke-dasharray:none;stroke-opacity:1"
       d="m 517.04578,99.967191 c 0,0 4.66692,68.660199 6,102.999999 1.33308,34.3398 3.99403,68.56326 2,102.99999 -1.99403,34.43673 -13.33781,68.43444 -14,103 -0.66219,34.56556 7.33383,68.66019 10,102.99999 2.66617,34.33979 7.65729,68.47139 6,102.99999 -1.65729,34.5286 -13.34125,68.5633 -16,103 -2.65875,34.4367 -0.99958,68.6521 0,103 0.99958,34.3479 6,103 6,103 0,0 -5.00042,-68.6521 -6,-103 -0.99958,-34.3479 -2.65875,-68.5633 0,-103 2.65875,-34.4367 14.34271,-68.4714 16,-103 1.65729,-34.5286 -3.33383,-68.6602 -6,-102.99999 -2.66617,-34.3398 -10.66219,-68.43443 -10,-102.99999 0.66219,-34.56556 12.00597,-68.56327 14,-103 1.99403,-34.43673 -0.66692,-68.66019 -2,-102.99999 -1.33308,-34.3398 -6,-102.999999 -6,-102.999999 z"
       id="path31210" /><path
       style="opacity:0.514368;fill:none;stroke:#c0832c;stroke-width:5;stroke-linecap:round;stroke-linejoin:miter;stroke-dasharray:none;stroke-opacity:1"
       d="m 497.69226,99.967191 c 0,0 4.66692,68.660199 6,102.999999 1.33308,34.3398 3.99403,68.56326 2,102.99999 -1.99403,34.43673 -13.33781,68.43444 -14,103 -0.66219,34.56556 7.33383,68.66019 10,102.99999 2.66617,34.33979 7.65729,68.47139 6,102.99999 -1.65729,34.5286 -13.34125,68.5633 -16,103 -2.65875,34.4367 -0.99958,68.6521 0,103 0.99958,34.3479 6,103 6,103 0,0 -5.00042,-68.6521 -6,-103 -0.99958,-34.3479 -2.65875,-68.5633 0,-103 2.65875,-34.4367 14.34271,-68.4714 16,-103 1.65729,-34.5286 -3.33383,-68.6602 -6,-102.99999 -2.66617,-34.3398 -10.66219,-68.43443 -10,-102.99999 0.66219,-34.56556 12.00597,-68.56327 14,-103 1.99403,-34.43673 -0.66692,-68.66019 -2,-102.99999 -1.33308,-34.3398 -6,-102.999999 -6,-102.999999 z"
       id="path31208" /><path
       style="opacity:0.514368;fill:none;stroke:#fed880;stroke-width:15;stroke-linecap:round;stroke-linejoin:miter;stroke-dasharray:none;stroke-opacity:1"
       d="m 455.19421,99.967191 c 0,0 4.66692,68.660199 6,102.999999 1.33308,34.3398 3.99403,68.56326 2,102.99999 -1.99403,34.43673 -13.33781,68.43444 -14,103 -0.66219,34.56556 7.33383,68.66019 10,102.99999 2.66617,34.33979 7.65729,68.47139 6,102.99999 -1.65729,34.5286 -13.34125,68.5633 -16,103 -2.65875,34.4367 -0.99958,68.6521 0,103 0.99958,34.3479 6,103 6,103 0,0 -5.00042,-68.6521 -6,-103 -0.99958,-34.3479 -2.65875,-68.5633 0,-103 2.65875,-34.4367 14.34271,-68.4714 16,-103 1.65729,-34.5286 -3.33383,-68.6602 -6,-102.99999 -2.66617,-34.3398 -10.66219,-68.43443 -10,-102.99999 0.66219,-34.56556 12.00597,-68.56327 14,-103 1.99403,-34.43673 -0.66692,-68.66019 -2,-102.99999 -1.33308,-34.3398 -6,-102.999999 -6,-102.999999 z"
       id="path24704" /><path
       style="fill:#f3b45a;fill-opacity:1;stroke:#f3b45a;stroke-width:3;stroke-linecap:round;stroke-linejoin:round;stroke-dasharray:none;stroke-opacity:1;paint-order:stroke fill markers"
       id="path41202"
       d="m 386.86218,208.30303 c -0.13891,0.97369 -0.23055,1.95531 -0.41673,2.92107 -0.75457,3.91398 -2.1414,7.83503 -3.22861,11.63966 -2.28428,7.99376 -1.78776,6.21414 -3.4898,13.02847 -0.98257,4.61023 -2.60604,7.83816 -6.65103,10.24561 -2.45261,1.93704 -2.12813,4.77842 -1.66881,7.53888 -0.0241,0.36834 0.14321,0.73625 0.13936,1.1087 -0.0382,3.69636 0.6017,7.31919 1.33202,10.9359 0.27166,3.60943 2.91242,6.39717 3.20875,9.97976 0.16044,1.93982 -0.12484,5.27405 -0.24044,7.13516 -0.29154,4.183 -0.0244,8.29675 -1.18611,12.37488 -1.2151,4.26557 -1.67376,4.17232 -3.21362,8.04278 -0.45631,1.14694 -0.81414,2.33064 -1.22121,3.49596 -1.14583,5.82867 -1.16119,11.73166 -0.86417,17.63361 0.11009,2.18749 0.4185,6.72337 0.93037,8.83671 0.56865,2.34778 1.42654,4.61592 2.13981,6.92388 1.65721,4.97832 3.26698,9.57472 4.66697,14.60967 0.27747,0.9979 -0.24347,2.55723 0.67671,3.03268 3.89601,2.01303 6.30739,-1.022 9.02858,-2.74296 1.6068,-1.01618 3.27591,-1.93032 4.91386,-2.89549 5.63143,-2.66101 11.62355,-4.4252 17.88055,-4.53958 0.41822,-0.008 -1.48639,-0.0174 -1.21768,0.3032 0.33356,0.39793 1.03908,0.16079 1.5546,0.0987 1.91508,-0.23049 3.80293,-0.64827 5.7044,-0.97241 4.29841,-3.6763 7.11909,-8.73035 9.75675,-13.65668 2.34019,-4.37077 4.51538,-8.83086 6.59444,-13.33171 4.92513,-10.66217 5.32099,-12.45764 9.02958,-22.89173 3.3677,-12.12105 2.18444,-24.5612 1.55436,-36.90828 -0.41032,-0.97662 -0.81645,-1.95501 -1.23095,-2.92987 -3.40589,-8.01036 -4.02054,-9.05453 -7.15175,-17.98458 -3.65349,-10.41958 -3.57222,-12.00593 -7.58217,-21.66758 -0.59507,-1.43379 -1.40196,-2.77019 -2.10294,-4.15528 -5.62277,-2.20888 -0.11339,-0.47223 -9.50905,-0.85638 -0.34022,-0.0139 1.08479,-0.18903 0.90325,-0.4771 -0.60317,-0.95711 -1.88878,-1.30643 -2.58779,-2.19595 -1.70192,-2.16577 -2.63605,-5.35942 -3.55638,-7.86459 -0.9351,-4.02561 -2.15066,-7.95542 -3.34537,-11.90621 -0.53389,-1.76555 -0.99495,-4.0794 -1.87408,-5.75278 -0.37544,-0.71465 -0.94335,-1.31028 -1.41502,-1.96541 -3.35038,-2.66207 -5.20963,-0.59144 -6.98169,1.72158 -0.98686,1.28812 -1.94836,2.59569 -2.899,3.91078 -1.07557,1.48793 -2.11948,2.99849 -3.17923,4.49773 -4.43037,6.27526 -5.1461,11.18859 -3.63657,18.6244 0.37169,1.37734 -0.0185,2.84635 -0.0245,4.26896 -10e-4,2.67253 3.77839,2.67413 3.77952,0.002 v 0 c 0.006,-1.44718 0.40356,-2.94547 0.0238,-4.34693 -1.52234,-7.362 -0.76079,-12.11826 3.63018,-18.31546 2.37806,-3.35828 3.6122,-5.17823 6.07613,-8.37671 0.34827,-0.45209 0.72756,-0.87965 1.10492,-1.30775 0.18298,-0.20758 0.83423,-0.50072 0.57534,-0.59842 -0.98681,-0.3724 -2.09042,-0.44561 -3.14246,-0.37035 -0.34787,0.0249 0.60115,0.35376 0.90172,0.53064 0.46998,0.62124 1.03974,1.17833 1.40993,1.86374 0.88888,1.64575 1.34705,3.99296 1.87337,5.73161 1.19725,3.95508 2.42641,7.88617 3.34586,11.92131 0.94208,2.59403 3.06744,9.47028 6.17879,10.45535 21.29138,6.74098 -2.22172,-3.17512 8.57304,0.98405 0.7004,1.3712 1.50908,2.69228 2.10121,4.11359 3.97916,9.55129 3.97587,11.36891 7.58216,21.66735 2.47419,7.06551 5.29286,13.98161 8.38031,20.7979 0.62543,12.29797 1.81788,24.68901 -1.5522,36.75987 -3.7024,10.39569 -4.11284,12.22634 -9.02779,22.84719 -2.07819,4.49081 -4.25122,8.94153 -6.5929,13.30075 -2.60635,4.85195 -5.38837,9.91399 -9.73779,13.4317 0.59562,0.27718 1.59152,0.2043 1.78685,0.83154 0.15388,0.49414 -1.03398,-0.048 -1.55088,-0.0738 -2.08681,-0.10426 -4.17091,-0.33481 -6.26025,-0.31645 -6.26199,0.055 -12.28709,2.11231 -17.90179,4.70722 -1.63866,0.97215 -3.29601,1.91347 -4.91598,2.91644 -1.32254,0.81882 -3.22381,1.1516 -3.90961,2.54775 -0.36279,0.7386 1.96005,1.16446 2.42101,0.48279 0.58542,-0.86574 -0.39842,-2.05406 -0.67745,-3.06122 -1.39678,-5.04167 -3.00657,-9.62848 -4.66704,-14.6122 -0.71282,-2.28752 -1.57066,-4.53481 -2.13846,-6.86257 -0.51308,-2.10339 -0.8201,-6.62177 -0.93004,-8.79748 -0.29586,-5.85515 -0.28556,-11.71184 0.86205,-17.49299 0.40669,-1.15525 0.76715,-2.32782 1.22006,-3.46574 1.52669,-3.83569 2.02683,-3.89683 3.21618,-8.12583 1.15225,-4.09708 0.89919,-8.22625 1.18677,-12.42612 0.1193,-1.93177 0.40177,-5.23422 0.23978,-7.23282 -0.29179,-3.60011 -2.88836,-6.37083 -3.20877,-9.98107 -0.73291,-3.6017 -1.36778,-7.20632 -1.33136,-10.88793 0.004,-0.38412 -0.14647,-0.76486 -0.13978,-1.14391 -0.4434,-2.6204 -0.80097,-5.34163 1.6499,-7.09334 4.02267,-2.60956 5.67392,-5.79839 6.66933,-10.53573 1.70917,-6.83047 1.19641,-4.98664 3.48939,-13.01331 1.09297,-3.82597 2.4749,-7.75871 3.22976,-11.69378 0.18475,-0.96308 0.27774,-1.94152 0.4166,-2.91228 0.0441,-2.67217 -3.73487,-2.73458 -3.77901,-0.0624 z" /><path
       style="fill:#f3b45a;fill-opacity:1;stroke:#f3b45a;stroke-width:3;stroke-linecap:round;stroke-linejoin:round;stroke-dasharray:none;stroke-opacity:1;paint-order:stroke fill markers"
       id="path44615"
       d="m 400.11201,239.64061 c 0,3.43671 0,6.87341 0,10.31012 0,1.02172 -0.073,2.04606 0,3.06517 0.0514,0.71665 0.24788,1.41542 0.37182,2.12314 0.24798,0.69203 0.45046,1.40209 0.74393,2.07609 0.42852,0.98416 1.08845,1.85963 1.4871,2.85625 0.0669,0.16715 0.22375,0.41075 0.091,0.53236 -0.34646,0.3174 -0.85926,0.38057 -1.29068,0.56672 -0.94222,0.40654 -1.8868,0.80755 -2.8302,1.21132 -1.32103,1.27168 -4.46055,1.90326 -5.04844,3.94881 -0.76482,2.66119 -0.49415,5.65381 -0.41537,8.36399 0.2501,3.59302 0.28289,7.17944 0.19085,10.77479 -0.82249,2.37849 -1.89289,4.57741 -2.40507,7.08672 -0.65397,3.20399 -1.1606,8.14864 -1.20033,11.58042 -0.012,1.0364 0.12282,2.06929 0.18423,3.10394 0.32272,2.58888 1.59866,4.9518 1.36709,7.60676 0.0841,3.84245 -1.91862,6.99925 -3.49758,10.35542 -0.0911,0.36268 -0.2525,0.71467 -0.27332,1.08803 -0.0189,0.33905 0.36756,0.39027 0.50587,0.59586 0.10976,0.16316 0.13912,0.36824 0.22214,0.54649 0.50849,1.09175 0.26388,0.72119 1.1439,1.49424 2.40252,0.41898 3.33914,0.66754 6.58708,0.0552 2.3956,-0.45162 5.48404,-3.49918 6.78865,-4.92304 3.65237,-3.98624 4.15845,-5.40594 6.72588,-9.89419 0.56085,-1.30602 0.8107,-2.72925 2.01921,-3.58996 0.0838,-0.0597 0.19591,0.0632 0.29387,0.0948 0.57953,-0.50242 1.19463,-0.96654 1.7386,-1.50726 2.26158,-2.24805 2.574,-2.86677 4.51384,-5.45457 0.4701,-0.80899 0.98967,-1.5912 1.4103,-2.42699 3.07818,-6.11623 5.85428,-12.42167 7.9166,-18.95467 2.51343,-7.96205 0.24323,-1.46142 0.87029,-3.24941 -1.34948,0.0756 -2.71893,-0.0166 -4.04843,0.22678 -0.21686,0.0397 -0.548,0.56055 -0.32797,0.57435 1.19876,0.0752 2.54516,0.23227 3.58429,-0.37012 0.48835,-0.28311 -0.0311,-1.12881 -0.025,-1.69325 0.0229,-2.12188 0.1072,-4.24267 0.15012,-6.36423 0.083,-6.82569 0.21051,-13.63145 -0.33425,-20.44213 -0.0925,-1.15629 -0.22925,-2.3093 -0.39207,-3.45781 -0.0343,-0.24221 0.0463,-0.7027 -0.19833,-0.7066 -1.39924,-0.0223 -2.7664,0.42486 -4.14959,0.6373 2.57266,0.52609 -1.20294,1.23549 -0.72692,1.22933 1.1482,-0.0149 2.33449,0.10791 3.43865,-0.20741 0.25318,-0.0723 -0.26156,-0.46802 -0.45745,-0.64397 -0.5409,-0.48585 -1.61896,-1.01923 -2.23952,-1.35528 -1.05513,-0.22852 -1.93453,-0.81545 -2.88532,-1.27869 -0.69396,-0.33812 -1.0164,-0.28517 -1.48394,-0.82646 -0.26675,-0.30882 -0.4822,-0.65846 -0.7233,-0.9877 -0.40905,-0.51213 -0.83389,-1.01204 -1.22715,-1.53639 -0.26317,-0.35092 -1.8424,-2.63746 -2.22801,-3.11563 -1.51191,-1.8748 -1.07726,-0.88953 -2.8568,-3.27941 -0.68915,-0.92552 -1.27929,-1.92081 -1.91893,-2.88121 -1.41553,-2.0462 -2.97078,-4.17317 -3.68,-6.60518 -0.197,-0.67555 0.0524,-1.11597 -0.1921,-1.13071 -1.40088,-0.0845 -2.80682,-0.0134 -4.21023,-0.0202 -0.12896,0.0188 -0.31374,-0.0513 -0.3869,0.0565 -0.7195,1.06082 -0.80275,2.87238 -0.88561,3.97187 -0.19343,2.56669 0.0114,5.14377 0.15773,7.7059 0.11268,1.24937 0.11916,2.50424 0.0778,3.75687 -0.008,0.23911 -0.019,0.47814 -0.0331,0.71697 -0.004,0.0663 -0.0872,0.19353 -0.021,0.19816 1.37477,0.096 2.7556,0.0593 4.13341,0.089 0.31408,-2.654 -3.43925,-3.09819 -3.75334,-0.44418 v 0 c 1.13309,0.13106 2.2601,0.33512 3.39927,0.3932 0.0141,7.1e-4 0.0429,-0.59634 0.0543,-0.94422 0.0412,-1.26278 0.0358,-2.52789 -0.0778,-3.78739 -0.14541,-2.53785 -0.35349,-5.0932 -0.15799,-7.63551 0.0738,-0.9597 0.0606,-2.60107 0.84787,-3.48561 0.0869,-0.0977 0.25834,-0.0405 0.38751,-0.0608 -1.09865,-0.0565 -2.19892,-0.0873 -3.29595,-0.16941 -0.0408,-0.003 0.0931,-0.10992 0.10088,-0.0698 0.0633,0.32884 -0.0109,0.67884 0.0785,1.00157 0.68238,2.46343 2.25251,4.62519 3.68376,6.68358 0.64064,0.97582 1.22955,1.98764 1.92192,2.92746 2.08274,2.8271 1.13797,1.15614 2.85482,3.24987 0.56074,0.68382 1.76692,2.51722 2.22922,3.134 0.38945,0.51959 0.81713,1.00938 1.2257,1.51406 0.0523,0.0758 0.91506,1.41691 1.22,1.60595 0.30271,0.18765 0.67973,0.21988 1.0011,0.37341 0.96623,0.46162 1.77392,1.16829 2.88627,1.28747 0.39486,0.20815 0.78902,0.41764 1.18459,0.62444 0.34563,0.1807 0.74808,0.27828 1.039,0.53804 0.23289,0.20794 0.16573,0.74234 0.47055,0.80985 1.48311,0.32847 3.84483,1.103 4.55069,-0.24209 0.15612,-0.29749 0.18177,-0.64687 0.27266,-0.97031 -1.13439,-0.23984 -2.24404,-0.69134 -3.40315,-0.71951 -0.22366,-0.005 0.16507,0.42016 0.19703,0.64158 0.1648,1.14171 0.29955,2.28852 0.3919,3.43835 0.54618,6.80028 0.41614,13.5958 0.33419,20.41116 -0.043,2.12602 -0.13021,4.25124 -0.15012,6.37761 -0.006,0.62077 -0.51149,1.55676 0.029,1.86216 1.1565,0.65348 2.63795,0.44225 3.96546,0.39492 0.21247,-0.008 0.52691,-0.477 0.32649,-0.54792 -1.11521,-0.39457 -2.33459,-0.38372 -3.50188,-0.57558 -0.41854,1.28803 -0.0787,0.22025 -0.87021,3.24704 -2.06594,6.50482 -4.82447,12.79673 -7.91337,18.87977 -0.41773,0.82264 -0.93848,1.58878 -1.40772,2.38317 -1.71018,2.2544 -2.45389,3.44127 -4.50682,5.36329 -0.52337,0.48999 -1.13324,0.87897 -1.71423,1.29904 -0.0992,0.0717 -0.23722,0.087 -0.32315,0.17407 -1.29341,1.31101 -1.12347,1.60047 -2.02406,3.66746 -2.53632,4.38876 -3.10329,5.90118 -6.71757,9.77263 -1.18151,1.26558 -2.48413,2.43617 -3.90705,3.42256 -0.85517,0.59283 -2.37821,0.33908 -2.85412,1.26442 -0.0923,0.17954 4.31794,0.16241 0.91517,0.15357 -1.16359,-0.76017 -0.81347,-0.92741 -1.36238,-1.99835 -0.0741,-0.14466 -0.17274,-0.30462 -0.3238,-0.36466 -0.0743,-0.0295 -0.1804,0.24734 -0.17107,0.16797 0.0409,-0.34844 0.18057,-0.67805 0.27085,-1.01707 1.60495,-3.39221 3.57727,-6.6088 3.50113,-10.4906 0.21927,-2.75538 -0.97857,-5.00367 -1.36703,-7.66071 -0.0614,-1.02002 -0.19612,-2.03827 -0.18422,-3.06007 0.0397,-3.40976 0.54334,-8.30225 1.19869,-11.48845 0.52207,-2.53822 1.65521,-4.75404 2.40676,-7.1903 0.0925,-3.60225 0.0595,-7.19563 -0.19085,-10.79551 -0.0763,-2.60372 -0.37933,-5.57911 0.40898,-8.13307 0.52554,-1.70264 3.89289,-2.68935 5.02947,-3.73154 0.7642,-0.34002 3.39102,-1.24044 4.14579,-2.27401 0.34438,-0.47159 -2.3994,-4.62773 -2.32216,-5.47239 -0.12375,-0.68554 -0.32089,-1.36184 -0.37125,-2.05664 -0.0739,-1.01905 0,-2.04345 0,-3.06517 0,-3.43671 0,-6.87341 0,-10.31012 0,-2.67253 -3.77952,-2.67253 -3.77952,0 z" /><path
       style="fill:#f3b45a;fill-opacity:1;stroke:#f3b45a;stroke-width:3;stroke-linecap:round;stroke-linejoin:round;stroke-dasharray:none;stroke-opacity:1;paint-order:stroke fill markers"
       id="path44617"
       d="m 385.98098,725.62827 c -1.33125,4.93163 -3.70992,9.49228 -5.09178,14.40495 -0.4149,1.47498 -0.62443,3.00386 -1.06138,4.47247 -3.8446,12.92164 0.86369,-4.9182 -2.01565,6.25563 -2.54791,8.56271 -1.42328,17.55321 -1.07477,26.32633 0.17387,3.57497 -0.15173,7.1433 -0.11107,10.71486 0.0429,2.86811 0.0188,5.73669 0.0168,8.605 -1.9e-4,5.56706 0.002,11.13411 0.002,16.70116 -6.5e-4,4.20768 -3.1e-4,8.41535 -2.6e-4,12.62303 0.34337,4.87185 -0.93137,10.04777 0.84929,14.72908 0.44213,1.16234 1.13269,2.21428 1.69904,3.32142 0.6303,1.21866 1.58735,2.62395 1.69589,4.08941 0.0303,0.40881 -0.24586,0.80271 -0.21251,1.21127 0.0395,0.48373 0.30467,0.92243 0.42505,1.3926 0.42503,1.66006 0.55006,2.44462 0.84811,4.03459 4.33972,5.60641 6.10512,12.82557 10.57357,18.3282 1.37155,-0.0303 2.81705,0.35429 4.11464,-0.091 0.0779,-0.0267 -0.4542,-2.09661 -0.76305,-2.12843 -1.36658,-0.1408 -2.8563,-0.15215 -4.09847,0.43471 -0.41367,0.19544 0.5149,0.75655 0.76199,1.14161 0.31413,0.48954 0.6143,0.98791 0.92145,1.48186 2.40208,2.10755 2.47233,1.51976 6.10158,0.67273 1.15947,-0.27061 1.23636,-0.19968 2.38067,-1.00455 2.0835,-5.25249 4.46849,-10.43367 6.98047,-15.52313 1.49608,-5.34823 3.33801,-10.56577 4.30286,-16.05362 0.21792,-1.23949 0.36207,-2.49723 0.38853,-3.75545 0.0117,-0.55486 0.25062,-1.46402 -0.27503,-1.64208 -1.33848,-0.45338 -2.82536,0.0756 -4.23804,0.11335 1.42736,-0.0998 3.03517,0.40238 4.28207,-0.29945 0.76861,-0.43262 0.56199,-1.67536 0.75536,-2.53591 0.9124,-4.06044 0.1958,-2.12814 0.61113,-6.51111 0.4889,-5.15922 1.07167,-6.9779 2.22856,-12.34995 1.4603,-3.27702 0.81967,-6.89487 1.54518,-10.28487 0.11959,-0.55877 0.51467,-1.02835 0.66757,-1.57893 0.22922,-0.82537 0.23333,-1.70346 0.47245,-2.52602 0.45909,-1.57925 1.18907,-3.06739 1.73485,-4.61881 0.70827,-1.60624 0.008,-2.14511 -0.29619,-3.49021 -0.11713,-0.51742 -0.0377,-1.9898 -0.0321,-2.27476 0.18544,-8.15822 0.12584,-16.31983 0.0901,-24.47942 -0.35642,-3.07806 0.49984,-6.34769 0.006,-9.40261 -0.1461,-0.90312 -0.56678,-1.73972 -0.85017,-2.60958 -0.28316,-0.97309 -0.61669,-1.93292 -0.84947,-2.91928 -0.1926,-0.8161 -0.14516,-1.68887 -0.42461,-2.47944 -0.42208,-1.19405 -1.8448,-1.82048 -2.55236,-2.76467 -0.32105,-0.42841 -0.49195,-0.951 -0.73792,-1.42649 -1.40736,-3.7674 -3.16434,-7.39042 -4.45513,-11.20446 -0.6514,-1.92477 -0.9444,-5.06467 -2.56613,-6.62369 -1.24394,0.32345 -2.52897,0.51742 -3.73182,0.97034 -0.13539,0.051 0.14074,0.34362 0.28453,0.32771 1.07225,-0.1187 2.16702,-0.28207 3.15785,-0.70877 0.24675,-0.10626 -0.54959,-0.13907 -0.73278,-0.33559 -0.48838,-0.52393 -0.43851,-1.08991 -0.49002,-1.72344 0.55932,-0.79662 -0.91516,-1.38251 -1.26412,-1.86304 -0.75458,-1.0391 -0.5999,-1.5004 -1.98264,-2.11064 -3.37004,-1.4166 -4.13254,0.38525 -6.63324,0.57196 -0.50637,0.0378 -2.03078,0.0341 -1.52301,0.032 3.21812,-0.0132 3.44799,0.48956 1.66276,-0.82718 -1.08087,-2.31376 -5.91886,-2.1207 -7.53679,-0.94673 -0.40029,0.29046 -0.70584,0.69296 -1.05876,1.03945 -1.90591,2.1066 -1.05541,1.12187 -2.57247,2.93593 -0.18674,2.66599 3.58355,2.93008 3.77029,0.26409 v 0 c 1.51345,-1.78899 0.66465,-0.82035 2.56867,-2.88628 1.00902,-0.84993 0.724,-0.84698 1.74194,-1.08574 0.32897,-0.0771 1.33083,-0.14568 0.99579,-0.18954 -5.63555,-0.7377 -2.55727,-0.45955 -1.67387,1.19762 2.3873,2.25194 4.31954,1.34985 7.36842,0.99083 0.61295,-0.0722 2.40091,-0.31633 1.79729,-0.445 -0.86842,-0.18511 -1.77164,-0.12224 -2.65745,-0.18335 1.77046,0.4244 1.14808,0.76569 1.96884,1.9823 0.39429,0.58445 1.72259,0.65298 1.24893,1.5525 0.0542,0.73322 0.0217,1.48849 0.51454,2.12499 0.35384,0.45694 11.26947,0.48399 1.01336,-0.33954 1.57684,0.90856 2.1404,5.19222 2.55289,6.41693 1.28917,3.82772 3.06319,7.4547 4.45661,11.24033 0.24899,0.52222 0.41019,1.09626 0.74699,1.56666 0.5822,0.81314 2.17449,1.5184 2.53982,2.51414 0.29372,0.80056 0.23148,1.69223 0.42558,2.52259 0.23177,0.99149 0.56661,1.95602 0.84992,2.93403 0.28274,0.8293 0.70536,1.62345 0.84821,2.4879 0.50437,3.05212 -0.36914,6.32816 -0.006,9.40441 0.0358,8.15663 0.0954,16.31527 -0.0901,24.47052 -0.008,0.41966 -0.083,1.90434 0.0375,2.48368 0.26756,1.28662 1.07339,1.51948 0.29299,3.1604 -0.55442,1.56756 -1.27175,3.0797 -1.73637,4.67619 -0.23233,0.79835 -0.24901,1.64818 -0.47024,2.44968 -0.16058,0.58179 -0.54564,1.09147 -0.67018,1.68202 -0.71293,3.38051 -0.11146,6.97876 -1.54459,10.24887 -1.17151,5.46109 -1.73279,7.18233 -2.22938,12.41718 -0.39514,4.1654 0.28414,2.55121 -0.6095,6.41189 -0.18804,0.81235 -1.24773,1.71953 -0.74801,2.38703 0.67607,0.90305 2.1651,0.63454 3.24765,0.95182 -1.10005,-0.14672 -2.25694,-0.81878 -3.30014,-0.44015 -0.4896,0.1777 0.28591,1.0175 0.27469,1.53824 -0.0268,1.24384 -0.17104,2.4871 -0.38784,3.71219 -0.96554,5.45583 -2.78352,10.65244 -4.2998,15.96299 -2.47957,5.03573 -4.77503,10.1685 -6.96543,15.31769 -0.56411,0.32213 -1.20987,0.48557 -1.77191,0.81129 -0.24447,0.14168 -0.8985,0.48878 -0.62776,0.56965 7.74365,2.31314 2.57555,-0.0546 1.4518,-0.87777 -1.31283,-2.18738 -1.91459,-3.04347 -5.13363,-2.66235 -1.49987,0.17758 6.52365,5.94693 4.19369,1.76925 -4.55551,-5.37296 -6.08723,-12.68952 -10.56515,-18.13646 -0.25904,-1.39193 -0.48188,-2.70393 -0.84935,-4.08385 -0.11012,-0.41353 -0.38864,-0.7854 -0.42368,-1.2119 -0.0377,-0.45953 0.24381,-0.90694 0.21185,-1.36691 -0.10888,-1.56708 -1.00236,-2.82885 -1.69904,-4.17593 -0.5653,-1.0784 -1.25325,-2.10093 -1.6959,-3.2352 -1.80881,-4.63504 -0.48884,-9.80092 -0.84811,-14.63481 -5e-5,-4.20766 -3.9e-4,-8.41533 2.6e-4,-12.62299 4.3e-4,-5.56697 -0.002,-11.13394 -0.002,-16.70092 0.002,-2.86984 0.0261,-5.73995 -0.0168,-8.60958 -0.041,-3.57511 0.28649,-7.14717 0.11105,-10.72555 -0.34684,-8.73721 -1.47163,-17.6887 1.07358,-26.21547 2.95114,-11.31332 -1.9606,7.12267 2.01583,-6.26316 0.43324,-1.45838 0.64642,-2.97526 1.06046,-4.43922 1.39269,-4.92429 3.77876,-9.49934 5.093,-14.45193 0.0528,-2.672 -3.72604,-2.74661 -3.77879,-0.0746 z" /><path
       style="fill:none;stroke:#d69d45;stroke-width:4.5;stroke-linecap:butt;stroke-linejoin:miter;stroke-dasharray:none;stroke-opacity:1"
       d="m 630.03787,430.39944 c -1.41457,0.35364 -2.82914,0.70729 -4.2437,1.06093 0,0.35364 0.25006,0.81086 0,1.06093 -0.25007,0.25006 -0.81087,-0.25007 -1.06093,0 -2.1951,2.19509 3.3544,-0.0858 -1.06093,2.12185 -0.31631,0.15815 -0.81086,-0.25006 -1.06093,0 -0.25006,0.25006 0.25007,0.81086 0,1.06093 -0.25006,0.25006 -0.81086,-0.25007 -1.06092,0 -0.55916,0.55915 -0.65408,1.44377 -1.06093,2.12185 -0.65602,1.09337 -1.35681,2.16272 -2.12185,3.18278 -0.30008,0.4001 -0.90278,0.58647 -1.06093,1.06093 -0.22366,0.67099 0.31631,1.48924 0,2.12185 -0.15815,0.31631 -0.90277,-0.31631 -1.06093,0 -0.3163,0.63262 0.22367,1.45087 0,2.12185 -0.15815,0.47447 -0.83726,0.61361 -1.06092,1.06093 -0.15816,0.31631 0.11183,0.72543 0,1.06093 -0.25007,0.75019 -0.86914,1.35469 -1.06093,2.12185 -0.17154,0.68617 0.22366,1.45087 0,2.12186 -0.15815,0.47446 -0.93963,0.57573 -1.06093,1.06092 -0.25731,1.02925 0,2.12186 0,3.18278 0,0.35365 0.11183,0.72544 0,1.06093 -0.25006,0.75019 -0.86913,1.3547 -1.06092,2.12185 -0.17155,0.68617 0,1.41457 0,2.12186 0,1.76821 0,3.53642 0,5.30463 0,0.18203 -0.12968,5.97652 0,6.36556 0.15815,0.47446 0.83726,0.6136 1.06092,1.06093 0.15816,0.31631 -0.19616,0.76668 0,1.06093 1.83553,2.75329 1.89562,1.61738 4.24371,3.18278 0.41613,0.27742 0.6136,0.83726 1.06093,1.06092 0.3163,0.15816 0.70728,0 1.06092,0 0.70729,0 1.43569,-0.17154 2.12186,0 0.76716,0.19179 1.37166,0.81087 2.12185,1.06093 1.38328,0.46109 2.84171,0.66036 4.24371,1.06093 1.07529,0.30722 2.09785,0.78969 3.18278,1.06092 0.34308,0.0858 0.70728,0 1.06093,0 0.70728,0 1.41457,0 2.12185,0 3.53642,0 7.07285,0 10.60927,0 0.25211,0 4.00592,0.1189 4.24371,0 0.44732,-0.22366 0.58646,-0.90277 1.06092,-1.06092 1.31762,-0.43921 3.90972,0.34873 5.30464,0 0.96932,-0.24233 8.37348,-4.16775 8.48741,-4.24371 0.0265,-0.0176 4.01592,-3.78813 4.24371,-4.24371 0.15815,-0.3163 -0.15815,-0.74462 0,-1.06092 0.22366,-0.44733 0.83726,-0.61361 1.06093,-1.06093 0.11889,-0.23779 0,-3.9916 0,-4.24371 0,-3.53642 0,-7.07284 0,-10.60927 0,-5.30463 0,-10.60927 0,-15.9139 0,-0.35364 0,-0.70728 0,-1.06093 0,-0.35364 0.25006,-0.81086 0,-1.06092 -0.25007,-0.25007 -0.81087,0.25006 -1.06093,0 -0.25006,-0.25007 0.11183,-0.72544 0,-1.06093 -0.25006,-0.75019 -0.70728,-1.41457 -1.06093,-2.12185 -0.35364,-0.70729 -0.62228,-1.4639 -1.06092,-2.12186 -0.27742,-0.41613 -0.78351,-0.6448 -1.06093,-1.06092 -0.43864,-0.65796 -0.50177,-1.5627 -1.06093,-2.12186 -0.25006,-0.25006 -0.81086,0.25006 -1.06092,0 -0.25007,-0.25006 0.3163,-0.90277 0,-1.06093 -0.84875,-0.42437 -2.33404,0.42438 -3.18279,0 -0.44732,-0.22366 -0.70728,-0.70728 -1.06092,-1.06092 -0.35364,-0.35364 -0.83727,-0.6136 -1.06093,-1.06093 -0.15815,-0.31631 0.25006,-0.81086 0,-1.06093 -0.25006,-0.25006 -0.74462,0.15816 -1.06093,0 -0.44732,-0.22366 -0.6136,-0.83726 -1.06092,-1.06092 -0.31631,-0.15816 -0.70729,0 -1.06093,0 -0.70728,0 -1.41457,0 -2.12185,0 -1.41457,0 -2.82914,0 -4.24371,0 -3.89007,0 -7.78013,0 -11.6702,0 -0.35364,0 -0.70728,0 -1.06092,0 -0.35365,0 -0.81087,-0.25007 -1.06093,0 -0.25006,0.25006 0.25006,0.81086 0,1.06092 -0.25006,0.25007 -0.74462,-0.15815 -1.06093,0 -0.95549,0.47775 -3.06343,4.06468 -3.18278,4.24371 z"
       id="path44721" /><path
       style="fill:none;stroke:#d69d45;stroke-width:2.5;stroke-linecap:butt;stroke-linejoin:miter;stroke-dasharray:none;stroke-opacity:1"
       d="m 636.40344,447.37427 c -0.70729,1.41457 -1.17293,2.97848 -2.12186,4.24371 -0.21218,0.28292 -0.81086,-0.25006 -1.06092,0 -0.25007,0.25007 0.11183,0.72543 0,1.06093 -1.28206,3.84617 -0.50337,0.75506 -2.12186,3.18278 -0.43864,0.65796 -0.50177,1.5627 -1.06092,2.12185 -0.25007,0.25007 -0.81087,-0.25006 -1.06093,0 -0.25006,0.25007 0,0.70729 0,1.06093 0,0.35364 0,0.70728 0,1.06093 0,0.70728 0,1.41457 0,2.12185 0,0.70729 -0.22366,1.45087 0,2.12185 0.15815,0.47447 0.70728,0.70729 1.06093,1.06093 0.70728,0.70729 1.41457,1.41457 2.12185,2.12186 0.35364,0.35364 0.6136,0.83726 1.06093,1.06092 0.3163,0.15816 0.71784,-0.0858 1.06092,0 5.13836,1.28459 1.25202,1.06093 5.30464,1.06093 0.34841,0 3.0247,0.10538 3.18278,0 0.83226,-0.55484 1.32165,-1.5217 2.12185,-2.12185 0.63262,-0.47447 1.4639,-0.62229 2.12186,-1.06093 0.48304,-0.32203 4.07226,-3.90082 4.2437,-4.24371 0.19184,-0.38367 0,-4.56672 0,-5.30463 0,-0.50023 0.0481,-5.25655 0,-5.30464 -0.25006,-0.25006 -0.81086,0.25007 -1.06092,0 -0.50013,-0.50012 0.50012,-1.62173 0,-2.12185 -0.25007,-0.25006 -0.81087,0.25006 -1.06093,0 -0.50013,-0.50013 0.50013,-1.62173 0,-2.12186 -0.25006,-0.25006 -0.74462,0.15816 -1.06093,0 -0.89465,-0.44732 -1.2272,-1.67452 -2.12185,-2.12185 -0.31631,-0.15815 -0.70729,0 -1.06093,0 -0.35364,0 -0.70728,0 -1.06092,0 -4.01236,0 -2.5942,-0.29429 -7.42649,2.12185 z"
       id="path44723" /></g><g
     id="g417"
     transform="matrix(1.1760511,0,0,1.1760511,210.548,210.93109)"
     inkscape:label="tomato"
     style="display:inline"><path
       d="M 395.80078,137.38672 C 365.80469,99.292969 330.70703,82.492188 286.01172,85.792969 V 15.5 c 0,-8.402344 -6.59766,-15 -15,-15 h -40.79688 c -4.5,0 -9,2.097656 -11.69922,5.699219 -3,3.601562 -3.89843,8.398437 -2.69921,12.898437 l 16.79687,67.292969 -30.59375,16.199215 c -35.09766,18.30079 -81.59766,6.30079 -103.195311,-26.394528 -3.898438,-6 -11.398438,-8.402343 -17.996094,-6 -6.601563,2.699219 -10.5,9.597657 -9.300781,16.496094 9.898437,60.296874 65.398436,100.792964 105.292966,84.593754 l 44.39453,-17.9961 c -14.99609,34.19531 0.60157,53.69531 24,77.69141 2.9961,2.69922 6.89844,4.19922 10.79688,4.19922 3.90234,0 7.80078,-1.5 10.80078,-4.19922 23.39844,-23.9961 38.99609,-43.4961 23.99609,-77.69141 20.40235,8.39844 39,15.29688 60.89844,15.29688 12.89844,0 26.09766,-2.69922 38.39453,-8.39844 4.19922,-1.80078 7.20313,-5.69922 8.40235,-9.90234 1.19531,-4.4961 -0.004,-9.29688 -2.70313,-12.89844 z m 0,0"
       fill="#a8d32a"
       id="path186"
       style="display:inline" /><path
       d="m 398.5,150.28516 c -1.19922,4.19921 -4.19922,8.10156 -8.39844,9.90234 -12.30078,5.69922 -25.5,8.39844 -38.39844,8.39844 -21.89453,0 -40.49609,-6.89844 -60.89453,-15.29688 15,34.19531 -0.59765,53.69531 -24,77.69141 -2.99609,2.69922 -6.89843,4.19922 -10.79687,4.19922 V 0.5 h 15 c 8.39844,0 14.99609,6.597656 14.99609,15 v 70.292969 c 44.69922,-3.300781 79.79297,13.5 109.78906,51.593751 2.70313,3.60156 3.90235,8.40234 2.70313,12.89844 z m 0,0"
       fill="#81a713"
       id="path188"
       style="display:inline" /><path
       d="m 390.58942,160.56467 c 4.227,-1.87866 7.3542,-5.62425 8.46966,-10.11349 1.11546,-4.50488 0.0861,-9.26026 -2.77495,-12.90018 C 366.31547,99.46494 331.2392,82.705664 286.34688,86.036385 V 14.529617 c 0,-8.3091884 -6.72015,-15.029337 -15.02934,-15.029337 h -40.78273 c -4.63796,0 -9.01369,2.1448116 -11.85909,5.7964706 -2.84931,3.6712292 -3.84735,8.4383464 -2.70058,12.9314924 l 16.84929,68.293463 -30.66141,16.187844 C 167.03195,121.2614 120.50754,109.15182 98.875469,76.204694 95.000718,70.259495 87.442997,67.868108 80.836351,70.43562 74.217963,73.018787 70.315815,79.887664 71.489981,86.905268 81.501712,147.17917 136.91847,187.90711 176.98106,171.74666 l 44.48135,-18.02347 c -15.04498,34.12129 0.51272,53.67118 24.14088,77.56156 2.818,2.86497 6.66535,4.46184 10.68491,4.46184 4.02349,0 7.86693,-1.59687 10.68493,-4.46184 23.62815,-23.89038 39.18586,-43.4246 24.14087,-77.56156 20.48921,8.30919 39.21717,15.17416 60.9236,15.17416 13.17808,0 26.15262,-2.80235 38.55182,-8.33268 z m 0,0"
       id="path313"
       style="display:none;stroke-width:1.00196" /><path
       d="M 3.4783176,367.96159 C 17.067343,436.45075 73.294285,492.41154 141.90478,507.2217 c 30.43831,6.58708 60.65746,5.56164 89.77288,-3.03718 15.87866,-4.66927 33.34244,-4.66927 49.225,0 29.48333,8.68492 59.64768,9.50684 89.46369,3.10763 69.34239,-14.8493 125.80808,-71.45589 139.02919,-140.81393 14.96672,-78.50872 -22.81014,-155.02917 -89.87073,-192.50468 -4.46183,5.55382 -10.13306,10.11741 -16.72406,13.045 -16.24655,7.24853 -33.33068,10.93541 -50.76315,10.93541 -9.49901,0 -18.43442,-1.01369 -27.00583,-2.71624 -6.0313,25.17022 -24.01172,43.35416 -36.68881,56.17997 -8.35224,8.4814 -20.0626,13.38551 -32.05476,13.38551 -11.98824,0 -23.6986,-4.90411 -32.09389,-13.42856 -12.09392,-12.22699 -29.04498,-29.36983 -35.78079,-52.8336 l -0.14481,0.0587 c -9.48335,3.82779 -19.57728,5.75342 -30.05867,5.75342 -24.48921,0.004 -48.44613,-10.91584 -68.485246,-28.33657 C 24.527218,214.541 -11.824991,290.97536 3.4783176,367.96158 Z m 0,0"
       id="path315"
       style="display:inline;fill:#ff7816;fill-opacity:1;stroke-width:1.00196" /><path
       id="path315-1"
       style="display:inline;fill:#ff4b00;fill-opacity:1;stroke-width:1.00196"
       d="m 419.5367,174.02812 c -4.46183,5.55381 -10.13355,10.1174 -16.72454,13.04499 -16.24654,7.24852 -33.33119,10.9359 -50.76365,10.9359 -9.499,0 -18.43444,-1.01418 -27.00584,-2.71673 -6.03129,25.17019 -24.01124,43.35516 -36.68831,56.18096 -8.35224,8.48139 -20.06261,13.3855 -32.05476,13.3855 -0.0924,0 -0.18359,-0.0141 -0.27593,-0.0147 v 235.86961 c 2.14461,0 4.28706,0.083 6.42122,0.23923 6.26798,0.43298 12.48152,1.52577 18.46965,3.2862 14.68615,4.32611 29.54094,6.69709 44.43782,7.20058 0.26749,0.008 0.5353,0.005 0.80284,0.0117 2.61192,0.0765 5.22536,0.0483 7.83903,0.0103 2.44138,-0.0472 4.88398,-0.12955 7.32827,-0.27447 0.35813,-0.0198 0.71623,-0.0441 1.07436,-0.066 9.19435,-0.59849 18.4056,-1.87536 27.61788,-3.81017 68.99211,-14.69921 125.48899,-71.39423 138.6882,-140.38635 6.81002,-36.43675 2.96148,-72.89202 -10.55136,-105.54734 -15.57057,-36.44298 -42.95049,-67.41886 -78.61488,-87.34921 z" /></g></svg>
