<svg height="511pt" viewBox="0 0 511.99944 511" width="511pt" xmlns="http://www.w3.org/2000/svg"><path d="m508.691406 367.871094c-13.199218 68.992187-69.695312 125.6875-138.6875 140.386718-30 6.300782-59.996094 5.699219-89.394531-3-7.796875-2.398437-16.195313-3.597656-24.597656-3.597656-8.398438 0-16.796875 1.199219-24.597657 3.597656-29.09375 8.398438-59.09375 9.597657-89.691406 3-68.394531-14.699218-124.589844-70.792968-138.089844-138.886718-11.699218-59.695313 5.101563-119.492188 46.796876-162.6875 34.199218-35.699219 80.792968-54.894532 129.390624-55.195313h153.585938c47.996094.597657 93.691406 19.796875 127.890625 54.59375 41.394531 42.898438 58.496094 102.390625 47.394531 161.789063zm0 0" fill="#ff7816"/><path d="m508.691406 367.871094c-13.199218 68.992187-69.695312 125.6875-138.6875 140.386718-30 6.300782-59.996094 5.699219-89.394531-3-7.796875-2.398437-16.195313-3.597656-24.597656-3.597656v-350.171875h77.394531c47.996094.597657 93.691406 19.796875 127.890625 54.59375 41.394531 42.898438 58.496094 102.390625 47.394531 161.789063zm0 0" fill="#ff4b00"/><path d="m395.800781 137.386719c-29.996093-38.09375-65.09375-54.894531-109.789062-51.59375v-70.292969c0-8.402344-6.597657-15-15-15h-40.796875c-4.5 0-9 2.097656-11.699219 5.699219-3 3.601562-3.898437 8.398437-2.699219 12.898437l16.796875 67.292969-30.59375 16.199219c-35.097656 18.300781-81.597656 6.300781-103.195312-26.394532-3.898438-6-11.398438-8.402343-17.996094-6-6.601563 2.699219-10.5 9.597657-9.300781 16.496094 9.898437 60.296875 65.398437 100.792969 105.292968 84.59375l44.394532-17.996094c-14.996094 34.195313.601562 53.695313 24 77.691407 2.996094 2.699219 6.898437 4.199219 10.796875 4.199219 3.902343 0 7.800781-1.5 10.800781-4.199219 23.398438-23.996094 38.996094-43.496094 23.996094-77.691407 20.402344 8.398438 39 15.296876 60.898437 15.296876 12.898438 0 26.097657-2.699219 38.394531-8.398438 4.199219-1.800781 7.203126-5.699219 8.402344-9.902344 1.195313-4.496094-.003906-9.296875-2.703125-12.898437zm0 0" fill="#a8d32a"/><path d="m398.5 150.285156c-1.199219 4.199219-4.199219 8.101563-8.398438 9.902344-12.300781 5.699219-25.5 8.398438-38.398437 8.398438-21.894531 0-40.496094-6.898438-60.894531-15.296876 15 34.195313-.597656 53.695313-24 77.691407-2.996094 2.699219-6.898438 4.199219-10.796875 4.199219v-234.679688h15c8.398437 0 14.996093 6.597656 14.996093 15v70.292969c44.699219-3.300781 79.792969 13.5 109.789063 51.59375 2.703125 3.601562 3.902344 8.402343 2.703125 12.898437zm0 0" fill="#81a713"/></svg>