<?xml version="1.0" encoding="UTF-8" standalone="no"?>
<svg
   height="512pt"
   viewBox="0 0 512 512.00014"
   width="512pt"
   version="1.1"
   id="svg186"
   sodipodi:docname="tomato-black copy 3.svg"
   inkscape:version="1.2.2 (b0a8486, 2022-12-01)"
   inkscape:export-filename="filled2.png"
   inkscape:export-xdpi="4.5"
   inkscape:export-ydpi="4.5"
   xmlns:inkscape="http://www.inkscape.org/namespaces/inkscape"
   xmlns:sodipodi="http://sodipodi.sourceforge.net/DTD/sodipodi-0.dtd"
   xmlns="http://www.w3.org/2000/svg"
   xmlns:svg="http://www.w3.org/2000/svg">
  <defs
     id="defs190" />
  <sodipodi:namedview
     id="namedview188"
     pagecolor="#ffffff"
     bordercolor="#666666"
     borderopacity="1.0"
     inkscape:showpageshadow="2"
     inkscape:pageopacity="0.0"
     inkscape:pagecheckerboard="0"
     inkscape:deskcolor="#d1d1d1"
     inkscape:document-units="pt"
     showgrid="false"
     inkscape:zoom="0.55177934"
     inkscape:cx="171.26411"
     inkscape:cy="456.70431"
     inkscape:window-width="1440"
     inkscape:window-height="834"
     inkscape:window-x="0"
     inkscape:window-y="25"
     inkscape:window-maximized="0"
     inkscape:current-layer="svg186" />
  <g
     id="g7919"
     sodipodi:insensitive="true"
     style="display:none">
    <path
       id="path7913"
       d="M 511.31836,358.56592 H 0.31494141 c 0.46581632,8.35376 1.48527619,1.76029 3.15820309,10.17627 13.5624865,68.3554 69.6787795,124.20753 138.1552755,138.98877 30.37887,6.57421 60.54007,5.54979 89.59863,-3.03223 15.84764,-4.66015 33.27638,-4.66015 49.12793,0 29.42575,8.66796 59.53177,9.48925 89.28955,3.10254 69.20696,-14.8203 125.56203,-71.31745 138.75733,-140.54004 1.51231,-7.93291 2.45903,-0.84146 2.9165,-8.69531 z"
       sodipodi:nodetypes="cccccccsc" />
    <path
       id="path7915"
       d="m 418.70654,175.13232 c -4.45312,5.54297 -10.11231,10.09766 -16.69043,13.01954 -16.21482,7.23436 -33.26613,10.91455 -50.66455,10.91455 -9.48046,0 -18.39844,-1.01221 -26.95312,-2.71143 -6.01953,25.12107 -23.96437,43.27052 -36.6167,56.07129 -8.33593,8.46484 -20.02345,13.35937 -31.99219,13.35937 -11.96483,0 -23.65284,-4.89551 -32.03174,-13.40332 -12.0703,-12.20311 -28.98877,-29.31203 -35.71142,-52.72998 l -0.14356,0.0586 c -9.46483,3.82031 -19.53907,5.74219 -30,5.74219 -24.44138,0.004 -48.35256,-10.89504 -68.352537,-28.28174 C 31.607314,211.40916 -3.4720335,260.6518 0.31494141,328.56592 H 511.31836 c 4.06106,-69.72064 -32.45833,-119.818 -92.61182,-153.4336 z"
       sodipodi:nodetypes="ccsccscccccccc" />
  </g>
  <path
     d="m 389.82812,160.75 c 4.21875,-1.875 7.33985,-5.61328 8.45313,-10.09375 1.11328,-4.49609 0.0859,-9.24219 -2.76953,-12.875 C 365.60156,99.769531 330.59375,83.042969 285.78906,86.367188 V 15 c 0,-8.292969 -6.70703,-15 -15,-15 h -40.70312 c -4.62891,0 -8.9961,2.140625 -11.83594,5.785156 -2.84375,3.664063 -3.83984,8.421875 -2.69531,12.90625 l 16.8164,68.160156 -30.60156,16.156248 c -35.0625,18.51563 -81.49609,6.42969 -103.085936,-26.453122 -3.867188,-5.933594 -11.410156,-8.320313 -18.003906,-5.757813 -6.605469,2.578125 -10.5,9.433594 -9.328126,16.4375 9.992188,60.156245 65.300778,100.804685 105.285158,84.675785 l 44.39453,-17.98829 c -15.01562,34.05469 0.51172,53.56641 24.09375,77.41016 2.8125,2.85938 6.65234,4.45313 10.66406,4.45313 4.01563,0 7.85157,-1.59375 10.66407,-4.45313 23.58203,-23.84375 39.10937,-43.33984 24.09375,-77.41016 20.44921,8.29297 39.14062,15.14454 60.80468,15.14454 13.15235,0 26.10157,-2.79688 38.47656,-8.31641 z m 0,0"
     id="path182"
     style="fill:#fc2125;fill-opacity:1" />
  <path
     id="path184"
     d="M 0.31494141 358.56592 C 0.78075209 366.91956 1.800238 360.32633 3.4731445 368.74219 C 17.035463 437.09675 73.152716 492.94984 141.62842 507.73096 C 172.00693 514.30505 202.16885 513.28063 231.22705 504.69873 C 247.07445 500.0387 264.50367 500.0387 280.35498 504.69873 C 309.78037 513.36657 339.88711 514.18786 369.64453 507.80127 C 438.85065 492.98109 495.20668 436.48298 508.40186 367.26123 C 509.91405 359.32844 510.86089 366.41965 511.31836 358.56592 L 0.31494141 358.56592 z M 30 369.07178 L 37.5 369.07178 L 37.5 400.61279 L 30 400.61279 L 30 369.07178 z M 67.681641 369.07178 L 82.681641 369.07178 L 82.681641 427.85596 L 67.681641 427.85596 L 67.681641 369.07178 z M 188.22656 369.07178 L 203.22656 369.07178 L 203.22656 427.85596 L 188.22656 427.85596 L 188.22656 369.07178 z M 308.77295 369.07178 L 323.77295 369.07178 L 323.77295 427.85596 L 308.77295 427.85596 L 308.77295 369.07178 z M 429.31787 369.07178 L 444.31787 369.07178 L 444.31787 427.85596 L 429.31787 427.85596 L 429.31787 369.07178 z M 474.49951 369.07178 L 481.99951 369.07178 L 481.99951 400.61279 L 474.49951 400.61279 L 474.49951 369.07178 z M 112.86328 382.69189 L 120.36328 382.69189 L 120.36328 414.23438 L 112.86328 414.23438 L 112.86328 382.69189 z M 150.54492 382.69189 L 158.04492 382.69189 L 158.04492 414.23438 L 150.54492 414.23438 L 150.54492 382.69189 z M 233.4082 382.69189 L 240.9082 382.69189 L 240.9082 414.23438 L 233.4082 414.23438 L 233.4082 382.69189 z M 271.09131 382.69189 L 278.59131 382.69189 L 278.59131 414.23438 L 271.09131 414.23438 L 271.09131 382.69189 z M 353.95459 382.69189 L 361.45459 382.69189 L 361.45459 414.23438 L 353.95459 414.23438 L 353.95459 382.69189 z M 391.63623 382.69189 L 399.13623 382.69189 L 399.13623 414.23438 L 391.63623 414.23438 L 391.63623 382.69189 z "
     style="fill:#fc2125;fill-opacity:1" />
  <path
     id="path531"
     d="M 418.70654 175.13232 C 414.25343 180.67529 408.59423 185.22998 402.01611 188.15186 C 385.80131 195.38621 368.74997 199.06641 351.35156 199.06641 C 341.87111 199.06641 332.95311 198.0542 324.39844 196.35498 C 318.37891 221.47603 300.43406 239.62551 287.78174 252.42627 C 279.44582 260.8911 267.75828 265.78564 255.78955 265.78564 C 243.82473 265.78564 232.1367 260.89013 223.75781 252.38232 C 211.68752 240.17923 194.76903 223.07027 188.04639 199.65234 L 187.90283 199.71094 C 178.43801 203.53124 168.36375 205.45313 157.90283 205.45313 C 133.46148 205.45712 109.55025 194.55807 89.550293 177.17139 C 31.607372 211.40912 -3.4720297 260.65187 0.31494141 328.56592 L 511.31836 328.56592 C 515.37942 258.84535 478.85997 208.74789 418.70654 175.13232 z M 74.945801 258.15674 L 132.97998 258.15674 L 101.14307 313.29932 L 74.945801 258.15674 z "
     style="fill:#fc2125;fill-opacity:1" />
</svg>
