<svg height="512pt" viewBox="0 0 512 512.00014" width="512pt" xmlns="http://www.w3.org/2000/svg"><path d="m389.828125 160.75c4.21875-1.875 7.339844-5.613281 8.453125-10.09375 1.113281-4.496094.085938-9.242188-2.769531-12.875-29.910157-38.011719-64.917969-54.738281-109.722657-51.414062v-71.367188c0-8.292969-6.707031-15-15-15h-40.703124c-4.628907 0-8.996094 2.140625-11.835938 5.785156-2.84375 3.664063-3.839844 8.421875-2.695312 12.90625l16.816406 68.160156-30.601563 16.15625c-35.0625 18.515626-81.496093 6.429688-103.085937-26.453124-3.867188-5.933594-11.410156-8.320313-18.003906-5.757813-6.605469 2.578125-10.5 9.433594-9.328126 16.4375 9.992188 60.15625 65.300782 100.804687 105.285157 84.675781l44.394531-17.988281c-15.015625 34.054687.511719 53.566406 24.09375 77.410156 2.8125 2.859375 6.652344 4.453125 10.664062 4.453125 4.015626 0 7.851563-1.59375 10.664063-4.453125 23.582031-23.84375 39.109375-43.339843 24.09375-77.410156 20.449219 8.292969 39.140625 15.144531 60.804687 15.144531 13.152344 0 26.101563-2.796875 38.476563-8.316406zm0 0"/><path d="m3.472656 368.742188c13.5625 68.355468 69.679688 124.207031 138.15625 138.988281 30.378906 6.574219 60.539063 5.550781 89.597656-3.03125 15.847657-4.660157 33.277344-4.660157 49.128907 0 29.425781 8.667969 59.53125 9.488281 89.289062 3.101562 69.207031-14.820312 125.5625-71.316406 138.757813-140.539062 14.9375-78.355469-22.765625-154.726563-89.695313-192.128907-4.453125 5.542969-10.113281 10.097657-16.691406 13.019532-16.214844 7.234375-33.265625 10.914062-50.664063 10.914062-9.480468 0-18.398437-1.011718-26.953124-2.710937-6.019532 25.121093-23.964844 43.269531-36.617188 56.070312-8.335938 8.464844-20.023438 13.359375-31.992188 13.359375-11.964843 0-23.652343-4.894531-32.03125-13.402344-12.070312-12.203124-28.988281-29.3125-35.710937-52.730468l-.144531.058594c-9.464844 3.820312-19.539063 5.742187-30 5.742187-24.441406.003906-48.351563-10.894531-68.351563-28.28125-65.070312 38.449219-101.351562 114.734375-86.078125 191.570313zm0 0"/></svg>