<?xml version="1.0" encoding="UTF-8" standalone="no"?>
<svg
   height="681.33331"
   viewBox="0 0 511.99942 510.99998"
   width="681.33331"
   version="1.1"
   id="svg190"
   sodipodi:docname="tomato-color copy.svg"
   xml:space="preserve"
   inkscape:version="1.2.2 (b0a8486, 2022-12-01)"
   xmlns:inkscape="http://www.inkscape.org/namespaces/inkscape"
   xmlns:sodipodi="http://sodipodi.sourceforge.net/DTD/sodipodi-0.dtd"
   xmlns="http://www.w3.org/2000/svg"
   xmlns:svg="http://www.w3.org/2000/svg"><defs
     id="defs194" /><sodipodi:namedview
     id="namedview192"
     pagecolor="#ffffff"
     bordercolor="#666666"
     borderopacity="1.0"
     inkscape:showpageshadow="2"
     inkscape:pageopacity="0.0"
     inkscape:pagecheckerboard="0"
     inkscape:deskcolor="#d1d1d1"
     inkscape:document-units="pt"
     showgrid="false"
     inkscape:zoom="0.34637965"
     inkscape:cx="320.45763"
     inkscape:cy="342.11017"
     inkscape:window-width="1440"
     inkscape:window-height="847"
     inkscape:window-x="0"
     inkscape:window-y="25"
     inkscape:window-maximized="1"
     inkscape:current-layer="svg190" /><path
     d="M 395.80078,137.38672 C 365.80469,99.292969 330.70703,82.492188 286.01172,85.792969 V 15.5 c 0,-8.402344 -6.59766,-15 -15,-15 h -40.79688 c -4.5,0 -9,2.097656 -11.69922,5.699219 -3,3.601562 -3.89843,8.398437 -2.69921,12.898437 l 16.79687,67.292969 -30.59375,16.199215 c -35.09766,18.30079 -81.59766,6.30079 -103.195311,-26.394528 -3.898438,-6 -11.398438,-8.402343 -17.996094,-6 -6.601563,2.699219 -10.5,9.597657 -9.300781,16.496094 9.898437,60.296874 65.398436,100.792964 105.292966,84.593754 l 44.39453,-17.9961 c -14.99609,34.19531 0.60157,53.69531 24,77.69141 2.9961,2.69922 6.89844,4.19922 10.79688,4.19922 3.90234,0 7.80078,-1.5 10.80078,-4.19922 23.39844,-23.9961 38.99609,-43.4961 23.99609,-77.69141 20.40235,8.39844 39,15.29688 60.89844,15.29688 12.89844,0 26.09766,-2.69922 38.39453,-8.39844 4.19922,-1.80078 7.20313,-5.69922 8.40235,-9.90234 1.19531,-4.4961 -0.004,-9.29688 -2.70313,-12.89844 z m 0,0"
     fill="#a8d32a"
     id="path186"
     style="display:inline" /><path
     d="m 398.5,150.28516 c -1.19922,4.19921 -4.19922,8.10156 -8.39844,9.90234 -12.30078,5.69922 -25.5,8.39844 -38.39844,8.39844 -21.89453,0 -40.49609,-6.89844 -60.89453,-15.29688 15,34.19531 -0.59765,53.69531 -24,77.69141 -2.99609,2.69922 -6.89843,4.19922 -10.79687,4.19922 V 0.5 h 15 c 8.39844,0 14.99609,6.597656 14.99609,15 v 70.292969 c 44.69922,-3.300781 79.79297,13.5 109.78906,51.593751 2.70313,3.60156 3.90235,8.40234 2.70313,12.89844 z m 0,0"
     fill="#81a713"
     id="path188"
     style="display:inline" /><path
     d="m 390.58942,160.56467 c 4.227,-1.87866 7.3542,-5.62425 8.46966,-10.11349 1.11546,-4.50488 0.0861,-9.26026 -2.77495,-12.90018 C 366.31547,99.46494 331.2392,82.705664 286.34688,86.036385 V 14.529617 c 0,-8.3091884 -6.72015,-15.029337 -15.02934,-15.029337 h -40.78273 c -4.63796,0 -9.01369,2.1448116 -11.85909,5.7964706 -2.84931,3.6712292 -3.84735,8.4383464 -2.70058,12.9314924 l 16.84929,68.293463 -30.66141,16.187844 C 167.03195,121.2614 120.50754,109.15182 98.875469,76.204694 95.000718,70.259495 87.442997,67.868108 80.836351,70.43562 74.217963,73.018787 70.315815,79.887664 71.489981,86.905268 81.501712,147.17917 136.91847,187.90711 176.98106,171.74666 l 44.48135,-18.02347 c -15.04498,34.12129 0.51272,53.67118 24.14088,77.56156 2.818,2.86497 6.66535,4.46184 10.68491,4.46184 4.02349,0 7.86693,-1.59687 10.68493,-4.46184 23.62815,-23.89038 39.18586,-43.4246 24.14087,-77.56156 20.48921,8.30919 39.21717,15.17416 60.9236,15.17416 13.17808,0 26.15262,-2.80235 38.55182,-8.33268 z m 0,0"
     id="path313"
     style="display:none;stroke-width:1.00196" /><path
     d="M 3.4783176,367.96159 C 17.067343,436.45075 73.294285,492.41154 141.90478,507.2217 c 30.43831,6.58708 60.65746,5.56164 89.77288,-3.03718 15.87866,-4.66927 33.34244,-4.66927 49.225,0 29.48333,8.68492 59.64768,9.50684 89.46369,3.10763 69.34239,-14.8493 125.80808,-71.45589 139.02919,-140.81393 14.96672,-78.50872 -22.81014,-155.02917 -89.87073,-192.50468 -4.46183,5.55382 -10.13306,10.11741 -16.72406,13.045 -16.24655,7.24853 -33.33068,10.93541 -50.76315,10.93541 -9.49901,0 -18.43442,-1.01369 -27.00583,-2.71624 -6.0313,25.17022 -24.01172,43.35416 -36.68881,56.17997 -8.35224,8.4814 -20.0626,13.38551 -32.05476,13.38551 -11.98824,0 -23.6986,-4.90411 -32.09389,-13.42856 -12.09392,-12.22699 -29.04498,-29.36983 -35.78079,-52.8336 l -0.14481,0.0587 c -9.48335,3.82779 -19.57728,5.75342 -30.05867,5.75342 -24.48921,0.004 -48.44613,-10.91584 -68.485246,-28.33657 C 24.527218,214.541 -11.824991,290.97536 3.4783176,367.96158 Z m 0,0"
     id="path315"
     style="display:inline;fill:#ff7816;fill-opacity:1;stroke-width:1.00196" /><path
     id="path315-1"
     style="display:inline;fill:#ff4b00;fill-opacity:1;stroke-width:1.00196"
     d="m 419.5367,174.02812 c -4.46183,5.55381 -10.13355,10.1174 -16.72454,13.04499 -16.24654,7.24852 -33.33119,10.9359 -50.76365,10.9359 -9.499,0 -18.43444,-1.01418 -27.00584,-2.71673 -6.03129,25.17019 -24.01124,43.35516 -36.68831,56.18096 -8.35224,8.48139 -20.06261,13.3855 -32.05476,13.3855 -0.0924,0 -0.18359,-0.0141 -0.27593,-0.0147 v 235.86961 c 2.14461,0 4.28706,0.083 6.42122,0.23923 6.26798,0.43298 12.48152,1.52577 18.46965,3.2862 14.68615,4.32611 29.54094,6.69709 44.43782,7.20058 0.26749,0.008 0.5353,0.005 0.80284,0.0117 2.61192,0.0765 5.22536,0.0483 7.83903,0.0103 2.44138,-0.0472 4.88398,-0.12955 7.32827,-0.27447 0.35813,-0.0198 0.71623,-0.0441 1.07436,-0.066 9.19435,-0.59849 18.4056,-1.87536 27.61788,-3.81017 68.99211,-14.69921 125.48899,-71.39423 138.6882,-140.38635 6.81002,-36.43675 2.96148,-72.89202 -10.55136,-105.54734 -15.57057,-36.44298 -42.95049,-67.41886 -78.61488,-87.34921 z" /></svg>
