<svg height="511pt" viewBox="0 0 511 511.99999" width="511pt" xmlns="http://www.w3.org/2000/svg"><path d="m4.066406 368.753906c13.550782 68.210938 69.078125 124.066406 138.171875 138.992188 29.816407 6.4375 59.984375 5.679687 89.597657-3.035156 15.835937-4.664063 33.28125-4.664063 49.117187 0 29.007813 8.539062 59.050781 9.582031 89.296875 3.097656 69.832031-14.960938 125.597656-71.445313 138.765625-140.550782 15.019531-78.8125-22.617187-156.554687-89.878906-194.402343.914062-1.480469 1.589843-3.113281 1.945312-4.855469.800781-3.917969.003907-7.996094-2.214843-11.328125-31.632813-47.445313-70.183594-71.332031-117.472657-72.652344v-69.019531c0-8.285156-6.714843-15-15-15h-74.996093c-4.628907 0-9 2.136719-11.839844 5.792969-2.839844 3.652343-3.835938 8.414062-2.695313 12.902343l18.664063 73.410157-20.144532 10.632812c-15.386718 8.121094-33.011718 9.652344-49.628906 4.316407-16.554687-5.316407-29.957031-16.816407-37.734375-32.375l-18.199219-36.390626c-2.710937-5.425781-8.425781-8.6875-14.480468-8.253906-6.050782.429688-11.246094 4.464844-13.164063 10.21875-18.710937 56.132813 4.269531 105.773438 30.894531 132.917969-67.628906 38.378906-104.660156 116.789063-89.003906 195.582031zm132.511719-233.136718c24.363281 7.824218 50.21875 5.570312 72.804687-6.347657l30.589844-16.148437c6.128906-3.230469 9.242188-10.242188 7.535156-16.957032l-16.820312-66.164062h40.707031v69.375c0 4.171875 1.738281 8.15625 4.796875 10.992188 3.058594 2.839843 7.164063 4.277343 11.324219 3.964843 39.445313-2.957031 69.820313 11.222657 96.804687 45.679688-30.523437 13.511719-56.878906 5.421875-87.539062-6.996094-5.660156-2.292969-12.144531-.925781-16.394531 3.457031-4.253907 4.382813-5.425781 10.90625-2.960938 16.492188 10.882813 24.699218 2.410157 37.125-21.027343 60.824218-23.4375-23.699218-31.914063-36.125-21.027344-60.824218 2.460937-5.585938 1.289062-12.109375-2.960938-16.492188-2.882812-2.96875-6.789062-4.554687-10.769531-4.554687-1.894531 0-3.804687.359375-5.628906 1.09375l-44.417969 17.992187c-16.007812 6.480469-36.933594.199219-54.613281-16.398437-13.386719-12.566407-26.109375-32.617188-30.21875-56.808594 11.742187 17.917969 29.097656 31.167969 49.816406 37.820313zm-17.050781 57.683593c21.019531 11.367188 43.460937 13.550781 63.324218 5.507813l17.875-7.238282c-.070312 9.574219 2.078126 18.78125 6.441407 27.757813 8.320312 17.113281 24.007812 31.652344 38.621093 46.265625 5.855469 5.855469 15.355469 5.855469 21.210938 0 14.375-14.375 30.308594-29.167969 38.621094-46.265625 4.507812-9.273437 6.652344-18.796875 6.425781-28.714844 21.539063 6.625 47.339844 10.347657 75.71875.339844 66.144531 26.894531 105.40625 99.195313 91.785156 170.6875-10.941406 57.414063-57.390625 104.367187-115.585937 116.835937-25.304688 5.421876-50.382813 4.566407-74.539063-2.542968-21.300781-6.269532-44.761719-6.269532-66.0625 0-24.242187 7.132812-49.40625 7.972656-74.796875 2.488281-57.574218-12.4375-103.824218-58.859375-115.078125-115.515625-14.003906-70.480469 21.988281-140.621094 86.039063-169.605469zm0 0"/></svg>